<svg class="poloto_background poloto" width="800" height="500" viewBox="0 0 800 500" xmlns="http://www.w3.org/2000/svg"><style>.poloto { stroke-linecap:round; stroke-linejoin:round; font-family: 'Tahoma', sans-serif; stroke-width:2; } .poloto_scatter{stroke-width:7} .poloto_text{fill: black;} .poloto_axis_lines{stroke: black;stroke-width:3;fill:none;stroke-dasharray:none} .poloto_background{background-color: AliceBlue;} .poloto0stroke{stroke:  blue;} .poloto1stroke{stroke:  red;} .poloto2stroke{stroke:  green;} .poloto3stroke{stroke:  gold;} .poloto4stroke{stroke:  aqua;} .poloto5stroke{stroke:  lime;} .poloto6stroke{stroke:  orange;} .poloto7stroke{stroke:  chocolate;} .poloto0fill{fill:blue;} .poloto1fill{fill:red;} .poloto2fill{fill:green;} .poloto3fill{fill:gold;} .poloto4fill{fill:aqua;} .poloto5fill{fill:lime;} .poloto6fill{fill:orange;} .poloto7fill{fill:chocolate;}</style><text  class="poloto_legend_text poloto_text" alignment-baseline="middle" text-anchor="start" font-size="large" x="675" y="100" >hero</text><line  class="poloto_legend_icon poloto0stroke poloto0legend" stroke="black" x1="680" x2="730" y1="81.25" y2="81.25" /><path  class="poloto0stroke" fill="none" stroke="black" d=" M 150 247.47522519362136 L 162.82051282051282 329.7987066155441 L 175.64102564102564 355.50254836207796 L 188.46153846153845 367.97139238448244 L 201.28205128205127 375.31589049232514 L 214.1025641025641 380.0947096841145 L 226.9230769230769 383.49636887289034 L 239.74358974358972 386.031894275423 L 252.56410256410254 388.0074100102075 L 265.38461538461536 389.5633921498857 L 278.2051282051282 390.8625272237576 L 291.025641025641 391.9305499743008 L 303.8461538461538 392.8206577856478 L 316.66666666666663 393.57636925832594 L 329.48717948717945 394.23643434335185 L 342.30769230769226 394.8314151224978 L 355.1282051282051 395.34143661512655 L 367.9487179487179 395.7917029964083 L 380.7692307692307 396.19726472455795 L 393.58974358974353 396.5714086123901 L 406.4102564102564 396.897595477317 L 419.2307692307692 397.18310482977137 L 432.05128205128204 397.45946630797266 L 444.87179487179486 397.70195402365385 L 457.6923076923077 397.9410204126868 L 470.5128205128205 398.1546882634231 L 483.3333333333333 398.35260023801897 L 496.15384615384613 398.5301711835292 L 508.97435897435895 398.6992787896065 L 521.7948717948718 398.8542890357542 L 534.6153846153845 399.0071073590974 L 547.4358974358975 399.14542556711353 L 560.2564102564102 399.2717894565469 L 573.0769230769231 399.3912607568433 L 585.8974358974358 399.5086495964783 L 598.7179487179487 399.6225490251596 L 611.5384615384614 399.72349922309115 L 624.3589743589744 399.8202435721919 L 637.1794871794871 399.91171213364964 L 650 400" /><text  class="poloto_legend_text poloto_text" alignment-baseline="middle" text-anchor="start" font-size="large" x="675" y="150" >random</text><line  class="poloto_legend_icon poloto1stroke poloto1legend" stroke="black" x1="680" x2="730" y1="131.25" y2="131.25" /><path  class="poloto1stroke" fill="none" stroke="black" d=" M 150 100 L 162.82051282051282 254.39947206331823 L 175.64102564102564 305.52017948728917 L 188.46153846153845 330.6679914399029 L 201.28205128205127 345.5140397573165 L 214.1025641025641 355.27937403670165 L 226.9230769230769 362.2800767901751 L 239.74358974358972 367.4962282748603 L 252.56410256410254 371.5296405573607 L 265.38461538461536 374.7817201835601 L 278.2051282051282 377.42677466476744 L 291.025641025641 379.6228911356979 L 303.8461538461538 381.4284817933094 L 316.66666666666663 383.01118447259864 L 329.48717948717945 384.36903834604675 L 342.30769230769226 385.5444632748373 L 355.1282051282051 386.6061388580484 L 367.9487179487179 387.53311605155915 L 380.7692307692307 388.3729112745735 L 393.58974358974353 389.13078651195326 L 406.4102564102564 389.8095306897061 L 419.2307692307692 390.43282416505656 L 432.05128205128204 390.98376067070404 L 444.87179487179486 391.4987277709958 L 457.6923076923077 391.96111292530054 L 470.5128205128205 392.4037774768519 L 483.3333333333333 392.8162366267404 L 496.15384615384613 393.19096541605563 L 508.97435897435895 393.5433731897841 L 521.7948717948718 393.863853691021 L 534.6153846153845 394.16636585879826 L 547.4358974358975 394.45337092797826 L 560.2564102564102 394.72553973095904 L 573.0769230769231 394.97915874986376 L 585.8974358974358 395.21733260666895 L 598.7179487179487 395.44879666682317 L 611.5384615384614 395.66088942990285 L 624.3589743589744 395.8585601181972 L 637.1794871794871 396.0490633625052 L 650 396.2270515933448" /><text  class="poloto_text" alignment-baseline="start" text-anchor="middle" font-size="x-large" x="400" y="37.5" >MSE</text><text  class="poloto_text" alignment-baseline="start" text-anchor="middle" font-size="x-large" x="400" y="481.25" >frame</text><text  class="poloto_text" alignment-baseline="start" text-anchor="middle" font-size="x-large" transform="rotate(-90,37.5,250)" x="37.5" y="250" >error</text><line  class="poloto_axis_lines" stroke="black" x1="150" x2="150" y1="400" y2="405" /><text  class="poloto_text" alignment-baseline="start" text-anchor="middle" x="150" y="430" > 0</text><line  class="poloto_axis_lines" stroke="black" x1="278.2051282051282" x2="278.2051282051282" y1="400" y2="405" /><text  class="poloto_text" alignment-baseline="start" text-anchor="middle" x="278.2051282051282" y="430" > 500</text><line  class="poloto_axis_lines" stroke="black" x1="406.4102564102564" x2="406.4102564102564" y1="400" y2="405" /><text  class="poloto_text" alignment-baseline="start" text-anchor="middle" x="406.4102564102564" y="430" > 1000</text><line  class="poloto_axis_lines" stroke="black" x1="534.6153846153845" x2="534.6153846153845" y1="400" y2="405" /><text  class="poloto_text" alignment-baseline="start" text-anchor="middle" x="534.6153846153845" y="430" > 1500</text><line  class="poloto_axis_lines" stroke="black" x1="150" x2="144" y1="355.14702207224997" y2="355.14702207224997" /><text  class="poloto_text" alignment-baseline="middle" text-anchor="end" x="135" y="355.14702207224997" > 2e7</text><line  class="poloto_axis_lines" stroke="black" x1="150" x2="144" y1="306.60723020624897" y2="306.60723020624897" /><text  class="poloto_text" alignment-baseline="middle" text-anchor="end" x="135" y="306.60723020624897" > 4e7</text><line  class="poloto_axis_lines" stroke="black" x1="150" x2="144" y1="258.06743834024803" y2="258.06743834024803" /><text  class="poloto_text" alignment-baseline="middle" text-anchor="end" x="135" y="258.06743834024803" > 6e7</text><line  class="poloto_axis_lines" stroke="black" x1="150" x2="144" y1="209.52764647424704" y2="209.52764647424704" /><text  class="poloto_text" alignment-baseline="middle" text-anchor="end" x="135" y="209.52764647424704" > 8e7</text><line  class="poloto_axis_lines" stroke="black" x1="150" x2="144" y1="160.98785460824604" y2="160.98785460824604" /><text  class="poloto_text" alignment-baseline="middle" text-anchor="end" x="135" y="160.98785460824604" > 1e8</text><line  class="poloto_axis_lines" stroke="black" x1="150" x2="144" y1="112.44806274224504" y2="112.44806274224504" /><text  class="poloto_text" alignment-baseline="middle" text-anchor="end" x="135" y="112.44806274224504" > 1.2e8</text><path  stroke="black" fill="none" class="poloto_axis_lines" style="stroke-dasharray:12.820512820512821;stroke-dashoffset:-0;" d=" M 150 400 L 650 400" /><path  stroke="black" fill="none" class="poloto_axis_lines" style="stroke-dasharray:12.134947966500246;stroke-dashoffset:-44.852977927750025;" d=" M 150 400 L 150 100" /></svg>