<svg class="poloto" width="800" height="500" viewBox="0 0 800 500" xmlns="http://www.w3.org/2000/svg"><style>.poloto { stroke-linecap:round; stroke-linejoin:round; font-family: 'Tahoma', sans-serif; background-color: AliceBlue;} .poloto_scatter{stroke-width:7} .poloto_line{stroke-width:2} .poloto_text{fill: black;} .poloto_axis_lines{stroke: black;stroke-width:3;fill:none;stroke-dasharray:none} .poloto0stroke{stroke:  blue;} .poloto1stroke{stroke:  red;} .poloto2stroke{stroke:  green;} .poloto3stroke{stroke:  gold;} .poloto4stroke{stroke:  aqua;} .poloto5stroke{stroke:  lime;} .poloto6stroke{stroke:  orange;} .poloto7stroke{stroke:  chocolate;} .poloto0fill{fill:blue;} .poloto1fill{fill:red;} .poloto2fill{fill:green;} .poloto3fill{fill:gold;} .poloto4fill{fill:aqua;} .poloto5fill{fill:lime;} .poloto6fill{fill:orange;} .poloto7fill{fill:chocolate;}</style><text  class="poloto_text poloto_legend_text" alignment-baseline="middle" text-anchor="start" font-size="large" x="675" y="100" >hero</text><line  class="poloto_line poloto_legend_icon poloto0stroke poloto0legend" stroke="black" x1="680" x2="730" y1="81.25" y2="81.25" /><path  class="poloto_line poloto0stroke" fill="none" stroke="black" d=" M 150 242.17211948633323 L 166.1290322580645 329.05285322153065 L 182.25806451612902 356.10020898460135 L 198.38709677419354 368.88566189698827 L 214.51612903225805 376.3468068680827 L 230.64516129032256 381.26199893636226 L 246.7741935483871 384.61172993481455 L 262.9032258064516 387.1456195027029 L 279.0322580645161 389.0913474043945 L 295.1612903225806 390.63128238945035 L 311.2903225806451 391.87808263498476 L 327.41935483870964 392.89755886885297 L 343.5483870967742 393.75735096207836 L 359.6774193548387 394.53185944443374 L 375.80645161290323 395.1900754686815 L 391.93548387096774 395.75885707518944 L 408.06451612903226 396.2787198619116 L 424.19354838709677 396.72325840141355 L 440.3225806451613 397.11577836693544 L 456.4516129032258 397.4719529322194 L 472.5806451612903 397.791678126151 L 488.7096774193548 398.0884670963238 L 504.83870967741933 398.35914454287223 L 520.9677419354839 398.6038362492621 L 537.0967741935484 398.8224433815959 L 553.2258064516129 399.02593914757335 L 569.3548387096774 399.21793090027717 L 585.483870967742 399.39455120881047 L 601.6129032258065 399.56157671852446 L 617.741935483871 399.7219087392501 L 633.8709677419355 399.8681589439323 L 650 400" /><text  class="poloto_text poloto_legend_text" alignment-baseline="middle" text-anchor="start" font-size="large" x="675" y="150" >random</text><line  class="poloto_line poloto_legend_icon poloto1stroke poloto1legend" stroke="black" x1="680" x2="730" y1="131.25" y2="131.25" /><path  class="poloto_line poloto1stroke" fill="none" stroke="black" d=" M 150 100.00000000000006 L 166.1290322580645 255.25209118657858 L 182.25806451612902 307.73875558355786 L 198.38709677419354 332.7167989033661 L 214.51612903225805 347.49318598718554 L 230.64516129032256 357.2105832980732 L 246.7741935483871 364.0108333484286 L 262.9032258064516 369.1452449847965 L 279.0322580645161 373.08845867645994 L 295.1612903225806 376.2571731029583 L 311.2903225806451 378.7746264356317 L 327.41935483870964 380.91258568068884 L 343.5483870967742 382.7439982794948 L 359.6774193548387 384.3134870443631 L 375.80645161290323 385.631998437179 L 391.93548387096774 386.7803558333768 L 408.06451612903226 387.8150587629191 L 424.19354838709677 388.73298513702457 L 440.3225806451613 389.5607523388907 L 456.4516129032258 390.3015368521582 L 472.5806451612903 390.9625714051541 L 488.7096774193548 391.57126409746945 L 504.83870967741933 392.1327461500986 L 520.9677419354839 392.63887203279955 L 537.0967741935484 393.0973073045354 L 553.2258064516129 393.5241036950619 L 569.3548387096774 393.91561765721366 L 585.483870967742 394.27943185711376 L 601.6129032258065 394.6317045331348 L 617.741935483871 394.9395838088229 L 633.8709677419355 395.2385848485626 L 650 395.5177211280444" /><text  class="poloto_labels poloto_text poloto_title" alignment-baseline="start" text-anchor="middle" font-size="x-large" x="400" y="37.5" > MSE</text><text  class="poloto_labels poloto_text poloto_xname" alignment-baseline="start" text-anchor="middle" font-size="x-large" x="400" y="481.25" > frame</text><text  class="poloto_labels poloto_text poloto_yname" alignment-baseline="start" text-anchor="middle" font-size="x-large" transform="rotate(-90,37.5,250)" x="37.5" y="250" > error</text><line  class="poloto_axis_lines" stroke="black" x1="150" x2="150" y1="400" y2="405" /><text  class="poloto_tick_labels poloto_text" alignment-baseline="start" text-anchor="middle" x="150" y="430" > 0</text><line  class="poloto_axis_lines" stroke="black" x1="250.80645161290323" x2="250.80645161290323" y1="400" y2="405" /><text  class="poloto_tick_labels poloto_text" alignment-baseline="start" text-anchor="middle" x="250.80645161290323" y="430" > 200</text><line  class="poloto_axis_lines" stroke="black" x1="351.61290322580646" x2="351.61290322580646" y1="400" y2="405" /><text  class="poloto_tick_labels poloto_text" alignment-baseline="start" text-anchor="middle" x="351.61290322580646" y="430" > 400</text><line  class="poloto_axis_lines" stroke="black" x1="452.4193548387097" x2="452.4193548387097" y1="400" y2="405" /><text  class="poloto_tick_labels poloto_text" alignment-baseline="start" text-anchor="middle" x="452.4193548387097" y="430" > 600</text><line  class="poloto_axis_lines" stroke="black" x1="553.2258064516129" x2="553.2258064516129" y1="400" y2="405" /><text  class="poloto_tick_labels poloto_text" alignment-baseline="start" text-anchor="middle" x="553.2258064516129" y="430" > 800</text><line  class="poloto_axis_lines" stroke="black" x1="150" x2="144" y1="335.80884207333406" y2="335.80884207333406" /><text  class="poloto_tick_labels poloto_text" alignment-baseline="middle" text-anchor="end" x="135" y="335.80884207333406" > 2e7</text><line  class="poloto_axis_lines" stroke="black" x1="150" x2="144" y1="267.1988532526208" y2="267.1988532526208" /><text  class="poloto_tick_labels poloto_text" alignment-baseline="middle" text-anchor="end" x="135" y="267.1988532526208" > 4e7</text><line  class="poloto_axis_lines" stroke="black" x1="150" x2="144" y1="198.5888644319075" y2="198.5888644319075" /><text  class="poloto_tick_labels poloto_text" alignment-baseline="middle" text-anchor="end" x="135" y="198.5888644319075" > 6e7</text><line  class="poloto_axis_lines" stroke="black" x1="150" x2="144" y1="129.97887561119427" y2="129.97887561119427" /><text  class="poloto_tick_labels poloto_text" alignment-baseline="middle" text-anchor="end" x="135" y="129.97887561119427" > 8e7</text><path  stroke="black" fill="none" class="poloto_axis_lines" style="stroke-dasharray:12.600806451612904;stroke-dashoffset:-0;" d=" M 150 400 L 650 400" /><path  stroke="black" fill="none" class="poloto_axis_lines" style="stroke-dasharray:8.576248602589159;stroke-dashoffset:-64.19115792666594;" d=" M 150 400 L 150 100" /></svg>