<svg class="poloto" width="800" height="500" viewBox="0 0 800 500" xmlns="http://www.w3.org/2000/svg"><style>.poloto { stroke-linecap:round; stroke-linejoin:round; font-family: 'Tahoma', sans-serif; background-color: AliceBlue;} .poloto_scatter{stroke-width:7} .poloto_line{stroke-width:2} .poloto_text{fill: black;} .poloto_axis_lines{stroke: black;stroke-width:3;fill:none;stroke-dasharray:none} .poloto0stroke{stroke:  blue;} .poloto1stroke{stroke:  red;} .poloto2stroke{stroke:  green;} .poloto3stroke{stroke:  gold;} .poloto4stroke{stroke:  aqua;} .poloto5stroke{stroke:  lime;} .poloto6stroke{stroke:  orange;} .poloto7stroke{stroke:  chocolate;} .poloto0fill{fill:blue;} .poloto1fill{fill:red;} .poloto2fill{fill:green;} .poloto3fill{fill:gold;} .poloto4fill{fill:aqua;} .poloto5fill{fill:lime;} .poloto6fill{fill:orange;} .poloto7fill{fill:chocolate;}</style><text  class="poloto_text poloto_legend_text" alignment-baseline="middle" text-anchor="start" font-size="large" x="675" y="100" >hero</text><line  class="poloto_line poloto_legend_icon poloto0stroke poloto0legend" stroke="black" x1="680" x2="730" y1="81.25" y2="81.25" /><path  class="poloto_line poloto0stroke" fill="none" stroke="black" d=" M 150 169.1992720341166 L 166.1290322580645 301.1803122846305 L 182.25806451612902 323.911270677194 L 198.38709677419354 371.3578431308405 L 214.51612903225805 373.6633618637123 L 230.64516129032256 378.2930945120233 L 246.7741935483871 384.5285087294163 L 262.9032258064516 388.18123454115755 L 279.0322580645161 382.5027466191707 L 295.1612903225806 387.38272117412293 L 311.2903225806451 387.7516470087911 L 327.41935483870964 389.44707944127555 L 343.5483870967742 391.8563016766626 L 359.6774193548387 393.57870330870844 L 375.80645161290323 393.77110151820835 L 391.93548387096774 395.23946876590145 L 408.06451612903226 395.2944200406692 L 424.19354838709677 395.6047975461033 L 440.3225806451613 394.49491781354027 L 456.4516129032258 396.05871758168684 L 472.5806451612903 397.017258043189 L 488.7096774193548 397.310899216883 L 504.83870967741933 398.04954353134707 L 520.9677419354839 398.13485798358994 L 537.0967741935484 397.66743936114676 L 553.2258064516129 397.9265488119642 L 569.3548387096774 397.3420905349975 L 585.483870967742 397.8759455394606 L 601.6129032258065 398.4260848027143 L 617.741935483871 399.108472689596 L 633.8709677419355 398.88623238729036 L 650 399.1269583298856" /><text  class="poloto_text poloto_legend_text" alignment-baseline="middle" text-anchor="start" font-size="large" x="675" y="150" >random</text><line  class="poloto_line poloto_legend_icon poloto1stroke poloto1legend" stroke="black" x1="680" x2="730" y1="131.25" y2="131.25" /><path  class="poloto_line poloto1stroke" fill="none" stroke="black" d=" M 150 100 L 166.1290322580645 240.57732323925137 L 182.25806451612902 310.88089455727237 L 198.38709677419354 326.27225042149547 L 214.51612903225805 366.6720902518471 L 230.64516129032256 373.9054785969926 L 246.7741935483871 380.04907305087386 L 262.9032258064516 386.94049037797276 L 279.0322580645161 389.3797906391584 L 295.1612903225806 391.3027742414525 L 311.2903225806451 391.0532658647371 L 327.41935483870964 394.19370659517716 L 343.5483870967742 394.36066283579777 L 359.6774193548387 394.98036696839137 L 375.80645161290323 395.70035251947485 L 391.93548387096774 396.9557592320082 L 408.06451612903226 397.3609769182957 L 424.19354838709677 398.07881149414607 L 440.3225806451613 397.20485129519307 L 456.4516129032258 397.13022640209607 L 472.5806451612903 397.30697861224974 L 488.7096774193548 396.96175718177955 L 504.83870967741933 396.76271603343156 L 520.9677419354839 397.01569492113435 L 537.0967741935484 398.36542640385545 L 553.2258064516129 398.7334561417929 L 569.3548387096774 399.09825948285743 L 585.483870967742 399.6608510730712 L 601.6129032258065 399.05596084057726 L 617.741935483871 399.1781590881788 L 633.8709677419355 399.7560683772432 L 650 400" /><text  class="poloto_labels poloto_text poloto_title" alignment-baseline="start" text-anchor="middle" font-size="x-large" x="400" y="37.5" > PSE</text><text  class="poloto_labels poloto_text poloto_xname" alignment-baseline="start" text-anchor="middle" font-size="x-large" x="400" y="481.25" > frame</text><text  class="poloto_labels poloto_text poloto_yname" alignment-baseline="start" text-anchor="middle" font-size="x-large" transform="rotate(-90,37.5,250)" x="37.5" y="250" > error</text><line  class="poloto_axis_lines" stroke="black" x1="150" x2="150" y1="400" y2="405" /><text  class="poloto_tick_labels poloto_text" alignment-baseline="start" text-anchor="middle" x="150" y="430" > 0</text><line  class="poloto_axis_lines" stroke="black" x1="250.80645161290323" x2="250.80645161290323" y1="400" y2="405" /><text  class="poloto_tick_labels poloto_text" alignment-baseline="start" text-anchor="middle" x="250.80645161290323" y="430" > 200</text><line  class="poloto_axis_lines" stroke="black" x1="351.61290322580646" x2="351.61290322580646" y1="400" y2="405" /><text  class="poloto_tick_labels poloto_text" alignment-baseline="start" text-anchor="middle" x="351.61290322580646" y="430" > 400</text><line  class="poloto_axis_lines" stroke="black" x1="452.4193548387097" x2="452.4193548387097" y1="400" y2="405" /><text  class="poloto_tick_labels poloto_text" alignment-baseline="start" text-anchor="middle" x="452.4193548387097" y="430" > 600</text><line  class="poloto_axis_lines" stroke="black" x1="553.2258064516129" x2="553.2258064516129" y1="400" y2="405" /><text  class="poloto_tick_labels poloto_text" alignment-baseline="start" text-anchor="middle" x="553.2258064516129" y="430" > 800</text><line  class="poloto_axis_lines" stroke="black" x1="150" x2="144" y1="344.02646755605207" y2="344.02646755605207" /><text  class="poloto_tick_labels poloto_text" alignment-baseline="middle" text-anchor="end" x="135" y="344.02646755605207" > 5e8</text><line  class="poloto_axis_lines" stroke="black" x1="150" x2="144" y1="278.0496798393905" y2="278.0496798393905" /><text  class="poloto_tick_labels poloto_text" alignment-baseline="middle" text-anchor="end" x="135" y="278.0496798393905" > 1e9</text><line  class="poloto_axis_lines" stroke="black" x1="150" x2="144" y1="212.07289212272894" y2="212.07289212272894" /><text  class="poloto_tick_labels poloto_text" alignment-baseline="middle" text-anchor="end" x="135" y="212.07289212272894" > 1.5e9</text><line  class="poloto_axis_lines" stroke="black" x1="150" x2="144" y1="146.09610440606733" y2="146.09610440606733" /><text  class="poloto_tick_labels poloto_text" alignment-baseline="middle" text-anchor="end" x="135" y="146.09610440606733" > 2.0e9</text><path  stroke="black" fill="none" class="poloto_axis_lines" style="stroke-dasharray:12.600806451612904;stroke-dashoffset:-0;" d=" M 150 400 L 650 400" /><path  stroke="black" fill="none" class="poloto_axis_lines" style="stroke-dasharray:6.597678771666159;stroke-dashoffset:-55.97353244394792;" d=" M 150 400 L 150 100" /></svg>