<svg class="poloto" width="800" height="500" viewBox="0 0 800 500" xmlns="http://www.w3.org/2000/svg"><style>.poloto { stroke-linecap:round; stroke-linejoin:round; font-family: 'Tahoma', sans-serif; background-color: AliceBlue;} .poloto_scatter{stroke-width:7} .poloto_line{stroke-width:2} .poloto_text{fill: black;} .poloto_axis_lines{stroke: black;stroke-width:3;fill:none;stroke-dasharray:none} .poloto0stroke{stroke:  blue;} .poloto1stroke{stroke:  red;} .poloto2stroke{stroke:  green;} .poloto3stroke{stroke:  gold;} .poloto4stroke{stroke:  aqua;} .poloto5stroke{stroke:  lime;} .poloto6stroke{stroke:  orange;} .poloto7stroke{stroke:  chocolate;} .poloto0fill{fill:blue;} .poloto1fill{fill:red;} .poloto2fill{fill:green;} .poloto3fill{fill:gold;} .poloto4fill{fill:aqua;} .poloto5fill{fill:lime;} .poloto6fill{fill:orange;} .poloto7fill{fill:chocolate;}</style><text  class="poloto_text poloto_legend_text" alignment-baseline="middle" text-anchor="start" font-size="large" x="675" y="100" >hero</text><line  class="poloto_line poloto_legend_icon poloto0stroke poloto0legend" stroke="black" x1="680" x2="730" y1="81.25" y2="81.25" /><path  class="poloto_line poloto0stroke" fill="none" stroke="black" d=" M 150 355.39642959570097 L 166.1290322580645 301.0486333887248 L 182.25806451612902 269.53989138130976 L 198.38709677419354 247.75501446412517 L 214.51612903225805 231.049180736427 L 230.64516129032256 217.40601666817867 L 246.7741935483871 206.3311249826475 L 262.9032258064516 196.62886398091808 L 279.0322580645161 188.15809195883276 L 295.1612903225806 180.653244667639 L 311.2903225806451 173.93508453118477 L 327.41935483870964 167.92533514081043 L 343.5483870967742 162.42806701771798 L 359.6774193548387 157.08237239469378 L 375.80645161290323 152.19921596835144 L 391.93548387096774 147.69038720561554 L 408.06451612903226 143.30238129004937 L 424.19354838709677 139.32187790716029 L 440.3225806451613 135.61113593891076 L 456.4516129032258 132.0671507654244 L 472.5806451612903 128.727510870941 L 488.7096774193548 125.47998048471794 L 504.83870967741933 122.38256556378127 L 520.9677419354839 119.46103756471877 L 537.0967741935484 116.745033052481 L 553.2258064516129 114.11968377843374 L 569.3548387096774 111.55029412768698 L 585.483870967742 109.10143297140786 L 601.6129032258065 106.70507837822964 L 617.741935483871 104.32594351629638 L 633.8709677419355 102.08384232867644 L 650 100.00000000000006" /><text  class="poloto_text poloto_legend_text" alignment-baseline="middle" text-anchor="start" font-size="large" x="675" y="150" >random</text><line  class="poloto_line poloto_legend_icon poloto1stroke poloto1legend" stroke="black" x1="680" x2="730" y1="131.25" y2="131.25" /><path  class="poloto_line poloto1stroke" fill="none" stroke="black" d=" M 150 400 L 166.1290322580645 349.43876162926733 L 182.25806451612902 318.70129685081736 L 198.38709677419354 297.5162164277066 L 214.51612903225805 281.1591073447314 L 230.64516129032256 267.89205269212573 L 246.7741935483871 256.86737609688464 L 262.9032258064516 247.23531182405515 L 279.0322580645161 238.8327883212844 L 295.1612903225806 231.27513823712678 L 311.2903225806451 224.637702770847 L 327.41935483870964 218.467529854516 L 343.5483870967742 212.7181776462607 L 359.6774193548387 207.3904302366969 L 375.80645161290323 202.58270787375477 L 391.93548387096774 198.11207441032678 L 408.06451612903226 193.82721153237975 L 424.19354838709677 189.7962073481209 L 440.3225806451613 185.95346725654264 L 456.4516129032258 182.3284607749144 L 472.5806451612903 178.9293453110605 L 488.7096774193548 175.64833214093568 L 504.83870967741933 172.48092547229646 L 520.9677419354839 169.49918965276453 L 537.0967741935484 166.68569258417824 L 553.2258064516129 163.96202138448456 L 569.3548387096774 161.36799120299003 L 585.483870967742 158.86930776818525 L 601.6129032258065 156.3629451448307 L 617.741935483871 154.09742082702672 L 633.8709677419355 151.82566680345707 L 650 149.63704323300038" /><text  class="poloto_labels poloto_text poloto_title" alignment-baseline="start" text-anchor="middle" font-size="x-large" x="400" y="37.5" > PSNR</text><text  class="poloto_labels poloto_text poloto_xname" alignment-baseline="start" text-anchor="middle" font-size="x-large" x="400" y="481.25" > frame</text><text  class="poloto_labels poloto_text poloto_yname" alignment-baseline="start" text-anchor="middle" font-size="x-large" transform="rotate(-90,37.5,250)" x="37.5" y="250" > ratio (dB)</text><line  class="poloto_axis_lines" stroke="black" x1="150" x2="150" y1="400" y2="405" /><text  class="poloto_tick_labels poloto_text" alignment-baseline="start" text-anchor="middle" x="150" y="430" > 0</text><line  class="poloto_axis_lines" stroke="black" x1="250.80645161290323" x2="250.80645161290323" y1="400" y2="405" /><text  class="poloto_tick_labels poloto_text" alignment-baseline="start" text-anchor="middle" x="250.80645161290323" y="430" > 200</text><line  class="poloto_axis_lines" stroke="black" x1="351.61290322580646" x2="351.61290322580646" y1="400" y2="405" /><text  class="poloto_tick_labels poloto_text" alignment-baseline="start" text-anchor="middle" x="351.61290322580646" y="430" > 400</text><line  class="poloto_axis_lines" stroke="black" x1="452.4193548387097" x2="452.4193548387097" y1="400" y2="405" /><text  class="poloto_tick_labels poloto_text" alignment-baseline="start" text-anchor="middle" x="452.4193548387097" y="430" > 600</text><line  class="poloto_axis_lines" stroke="black" x1="553.2258064516129" x2="553.2258064516129" y1="400" y2="405" /><text  class="poloto_tick_labels poloto_text" alignment-baseline="start" text-anchor="middle" x="553.2258064516129" y="430" > 800</text><line  class="poloto_axis_lines" stroke="black" x1="150" x2="144" y1="348.5626640492357" y2="348.5626640492357" /><text  class="poloto_tick_labels poloto_text" alignment-baseline="middle" text-anchor="end" x="135" y="348.5626640492357" > 20</text><line  class="poloto_axis_lines" stroke="black" x1="150" x2="144" y1="266.95950501388853" y2="266.95950501388853" /><text  class="poloto_tick_labels poloto_text" alignment-baseline="middle" text-anchor="end" x="135" y="266.95950501388853" > 25</text><line  class="poloto_axis_lines" stroke="black" x1="150" x2="144" y1="185.3563459785414" y2="185.3563459785414" /><text  class="poloto_tick_labels poloto_text" alignment-baseline="middle" text-anchor="end" x="135" y="185.3563459785414" > 30</text><line  class="poloto_axis_lines" stroke="black" x1="150" x2="144" y1="103.7531869431943" y2="103.7531869431943" /><text  class="poloto_tick_labels poloto_text" alignment-baseline="middle" text-anchor="end" x="135" y="103.7531869431943" > 35</text><path  stroke="black" fill="none" class="poloto_axis_lines" style="stroke-dasharray:12.600806451612904;stroke-dashoffset:-0;" d=" M 150 400 L 650 400" /><path  stroke="black" fill="none" class="poloto_axis_lines" style="stroke-dasharray:8.160315903534713;stroke-dashoffset:-51.43733595076429;" d=" M 150 400 L 150 100" /></svg>