<svg class="poloto" width="800" height="500" viewBox="0 0 800 500" xmlns="http://www.w3.org/2000/svg"><style>.poloto { stroke-linecap:round; stroke-linejoin:round; font-family: 'Tahoma', sans-serif; background-color: AliceBlue;} .poloto_scatter{stroke-width:7} .poloto_line{stroke-width:2} .poloto_text{fill: black;} .poloto_axis_lines{stroke: black;stroke-width:3;fill:none;stroke-dasharray:none} .poloto0stroke{stroke:  blue;} .poloto1stroke{stroke:  red;} .poloto2stroke{stroke:  green;} .poloto3stroke{stroke:  gold;} .poloto4stroke{stroke:  aqua;} .poloto5stroke{stroke:  lime;} .poloto6stroke{stroke:  orange;} .poloto7stroke{stroke:  chocolate;} .poloto0fill{fill:blue;} .poloto1fill{fill:red;} .poloto2fill{fill:green;} .poloto3fill{fill:gold;} .poloto4fill{fill:aqua;} .poloto5fill{fill:lime;} .poloto6fill{fill:orange;} .poloto7fill{fill:chocolate;}</style><text  class="poloto_text poloto_legend_text" alignment-baseline="middle" text-anchor="start" font-size="large" x="675" y="100" >hero</text><line  class="poloto_line poloto_legend_icon poloto0stroke poloto0legend" stroke="black" x1="680" x2="730" y1="81.25" y2="81.25" /><path  class="poloto_line poloto0stroke" fill="none" stroke="black" d=" M 150 389.99591883296245 L 166.1290322580645 363.7805791512302 L 182.25806451612902 342.98549123188405 L 198.38709677419354 325.3618373322535 L 214.51612903225805 309.9606268418884 L 230.64516129032256 295.97473973247446 L 246.7741935483871 284.0225915465742 L 262.9032258064516 272.2947990361905 L 279.0322580645161 261.4234127208132 L 295.1612903225806 251.4363476477278 L 311.2903225806451 241.96168434645125 L 327.41935483870964 232.9616884346408 L 343.5483870967742 224.5382480033532 L 359.6774193548387 215.98109632459145 L 375.80645161290323 207.7084486756866 L 391.93548387096774 199.81719226184913 L 408.06451612903226 191.93601356527904 L 424.19354838709677 184.56037666597211 L 440.3225806451613 177.46669031308198 L 456.4516129032258 170.52836743935347 L 472.5806451612903 163.8475086527228 L 488.7096774193548 157.33788747544617 L 504.83870967741933 150.88274353741616 L 520.9677419354839 144.61068929976938 L 537.0967741935484 138.75251671214443 L 553.2258064516129 133.04646524785403 L 569.3548387096774 127.23101325681068 L 585.483870967742 121.84719064219166 L 601.6129032258065 116.00353875917767 L 617.741935483871 110.26026253280207 L 633.8709677419355 104.84754371518608 L 650 100" /><text  class="poloto_text poloto_legend_text" alignment-baseline="middle" text-anchor="start" font-size="large" x="675" y="150" >random</text><line  class="poloto_line poloto_legend_icon poloto1stroke poloto1legend" stroke="black" x1="680" x2="730" y1="131.25" y2="131.25" /><path  class="poloto_line poloto1stroke" fill="none" stroke="black" d=" M 150 400 L 166.1290322580645 379.1084702179313 L 182.25806451612902 362.02570381586975 L 198.38709677419354 348.1774363246336 L 214.51612903225805 335.917845652701 L 230.64516129032256 324.86116216175026 L 246.7741935483871 314.79110652802126 L 262.9032258064516 305.25940996132806 L 279.0322580645161 296.4259706736126 L 295.1612903225806 287.9732371593741 L 311.2903225806451 280.34432912336405 L 327.41935483870964 272.995083056378 L 343.5483870967742 265.71763574041677 L 359.6774193548387 258.60056982662604 L 375.80645161290323 252.1177202106348 L 391.93548387096774 245.74801127190148 L 408.06451612903226 239.72445497930394 L 424.19354838709677 233.6734601051369 L 440.3225806451613 227.7992540077986 L 456.4516129032258 222.10462999359464 L 472.5806451612903 216.7380078424179 L 488.7096774193548 211.3615032903871 L 504.83870967741933 205.83996076323186 L 520.9677419354839 200.61654881313535 L 537.0967741935484 195.7728859883792 L 553.2258064516129 190.75445187565037 L 569.3548387096774 185.8702665239743 L 585.483870967742 181.32519600214306 L 601.6129032258065 176.5868232088725 L 617.741935483871 172.1035510756858 L 633.8709677419355 167.67791180369846 L 650 163.39293145152374" /><text  class="poloto_labels poloto_text poloto_title" alignment-baseline="start" text-anchor="middle" font-size="x-large" x="400" y="37.5" > SNR</text><text  class="poloto_labels poloto_text poloto_xname" alignment-baseline="start" text-anchor="middle" font-size="x-large" x="400" y="481.25" > frame</text><text  class="poloto_labels poloto_text poloto_yname" alignment-baseline="start" text-anchor="middle" font-size="x-large" transform="rotate(-90,37.5,250)" x="37.5" y="250" > ratio (dB)</text><line  class="poloto_axis_lines" stroke="black" x1="150" x2="150" y1="400" y2="405" /><text  class="poloto_tick_labels poloto_text" alignment-baseline="start" text-anchor="middle" x="150" y="430" > 0</text><line  class="poloto_axis_lines" stroke="black" x1="250.80645161290323" x2="250.80645161290323" y1="400" y2="405" /><text  class="poloto_tick_labels poloto_text" alignment-baseline="start" text-anchor="middle" x="250.80645161290323" y="430" > 200</text><line  class="poloto_axis_lines" stroke="black" x1="351.61290322580646" x2="351.61290322580646" y1="400" y2="405" /><text  class="poloto_tick_labels poloto_text" alignment-baseline="start" text-anchor="middle" x="351.61290322580646" y="430" > 400</text><line  class="poloto_axis_lines" stroke="black" x1="452.4193548387097" x2="452.4193548387097" y1="400" y2="405" /><text  class="poloto_tick_labels poloto_text" alignment-baseline="start" text-anchor="middle" x="452.4193548387097" y="430" > 600</text><line  class="poloto_axis_lines" stroke="black" x1="553.2258064516129" x2="553.2258064516129" y1="400" y2="405" /><text  class="poloto_tick_labels poloto_text" alignment-baseline="start" text-anchor="middle" x="553.2258064516129" y="430" > 800</text><line  class="poloto_axis_lines" stroke="black" x1="150" x2="144" y1="352.55490177765387" y2="352.55490177765387" /><text  class="poloto_tick_labels poloto_text" alignment-baseline="middle" text-anchor="end" x="135" y="352.55490177765387" > 10</text><line  class="poloto_axis_lines" stroke="black" x1="150" x2="144" y1="303.8184204925976" y2="303.8184204925976" /><text  class="poloto_tick_labels poloto_text" alignment-baseline="middle" text-anchor="end" x="135" y="303.8184204925976" > 15</text><line  class="poloto_axis_lines" stroke="black" x1="150" x2="144" y1="255.08193920754127" y2="255.08193920754127" /><text  class="poloto_tick_labels poloto_text" alignment-baseline="middle" text-anchor="end" x="135" y="255.08193920754127" > 20</text><line  class="poloto_axis_lines" stroke="black" x1="150" x2="144" y1="206.34545792248502" y2="206.34545792248502" /><text  class="poloto_tick_labels poloto_text" alignment-baseline="middle" text-anchor="end" x="135" y="206.34545792248502" > 25</text><line  class="poloto_axis_lines" stroke="black" x1="150" x2="144" y1="157.60897663742873" y2="157.60897663742873" /><text  class="poloto_tick_labels poloto_text" alignment-baseline="middle" text-anchor="end" x="135" y="157.60897663742873" > 30</text><line  class="poloto_axis_lines" stroke="black" x1="150" x2="144" y1="108.87249535237243" y2="108.87249535237243" /><text  class="poloto_tick_labels poloto_text" alignment-baseline="middle" text-anchor="end" x="135" y="108.87249535237243" > 35</text><path  stroke="black" fill="none" class="poloto_axis_lines" style="stroke-dasharray:12.600806451612904;stroke-dashoffset:-0;" d=" M 150 400 L 650 400" /><path  stroke="black" fill="none" class="poloto_axis_lines" style="stroke-dasharray:4.8736481285056295;stroke-dashoffset:-47.44509822234612;" d=" M 150 400 L 150 100" /></svg>