<svg class="poloto" width="800" height="500" viewBox="0 0 800 500" xmlns="http://www.w3.org/2000/svg"><style>.poloto { stroke-linecap:round; stroke-linejoin:round; font-family: 'Tahoma', sans-serif; background-color: AliceBlue;} .poloto_scatter{stroke-width:7} .poloto_line{stroke-width:2} .poloto_text{fill: black;} .poloto_axis_lines{stroke: black;stroke-width:3;fill:none;stroke-dasharray:none} .poloto0stroke{stroke:  blue;} .poloto1stroke{stroke:  red;} .poloto2stroke{stroke:  green;} .poloto3stroke{stroke:  gold;} .poloto4stroke{stroke:  aqua;} .poloto5stroke{stroke:  lime;} .poloto6stroke{stroke:  orange;} .poloto7stroke{stroke:  chocolate;} .poloto0fill{fill:blue;} .poloto1fill{fill:red;} .poloto2fill{fill:green;} .poloto3fill{fill:gold;} .poloto4fill{fill:aqua;} .poloto5fill{fill:lime;} .poloto6fill{fill:orange;} .poloto7fill{fill:chocolate;}</style><text  class="poloto_text poloto_legend_text" alignment-baseline="middle" text-anchor="start" font-size="large" x="675" y="100" >hero</text><line  class="poloto_line poloto_legend_icon poloto0stroke poloto0legend" stroke="black" x1="680" x2="730" y1="81.25" y2="81.25" /><path  class="poloto_line poloto0stroke" fill="none" stroke="black" d=" M 150 387.81477329252994 L 166.1290322580645 231.8047280417868 L 182.25806451612902 181.9798638870543 L 198.38709677419354 158.23668013000133 L 214.51612903225805 144.3184808158876 L 230.64516129032256 135.11635220759854 L 246.7741935483871 128.86966294102785 L 262.9032258064516 124.12221268795656 L 279.0322580645161 120.47379631943113 L 295.1612903225806 117.59378606667269 L 311.2903225806451 115.26422256855585 L 327.41935483870964 113.36160601114352 L 343.5483870967742 111.75884341635538 L 359.6774193548387 110.29688385567533 L 375.80645161290323 109.05791710447374 L 391.93548387096774 107.9861026348899 L 408.06451612903226 107.00174166240868 L 424.19354838709677 106.16551939930105 L 440.3225806451613 105.42878427711548 L 456.4516129032258 104.75733683211547 L 472.5806451612903 104.15633062385314 L 488.7096774193548 103.59821274960814 L 504.83870967741933 103.08758946023772 L 520.9677419354839 102.62711731564741 L 537.0967741935484 102.21755212628159 L 553.2258064516129 101.83486305459701 L 569.3548387096774 101.47273973135452 L 585.483870967742 101.14018898831273 L 601.6129032258065 100.82464439960495 L 617.741935483871 100.52126230491922 L 633.8709677419355 100.24651998910485 L 650 100" /><text  class="poloto_text poloto_legend_text" alignment-baseline="middle" text-anchor="start" font-size="large" x="675" y="150" >random</text><line  class="poloto_line poloto_legend_icon poloto1stroke poloto1legend" stroke="black" x1="680" x2="730" y1="131.25" y2="131.25" /><path  class="poloto_line poloto1stroke" fill="none" stroke="black" d=" M 150 400 L 166.1290322580645 248.40503156741943 L 182.25806451612902 194.97889326283985 L 198.38709677419354 169.21857173831086 L 214.51612903225805 153.5326068560098 L 230.64516129032256 143.20565737060497 L 246.7741935483871 135.89840385892603 L 262.9032258064516 130.37544497415547 L 279.0322580645161 126.18546446243454 L 295.1612903225806 122.73847672988268 L 311.2903225806451 120.0157599607137 L 327.41935483870964 117.6962791679889 L 343.5483870967742 115.71154296448549 L 359.6774193548387 114.0146281233774 L 375.80645161290323 112.57376586599275 L 391.93548387096774 111.33541997223983 L 408.06451612903226 110.2111968217323 L 424.19354838709677 109.19830560783521 L 440.3225806451613 108.27760743470935 L 456.4516129032258 107.47131295777035 L 472.5806451612903 106.72832910810212 L 488.7096774193548 106.05464692627538 L 504.83870967741933 105.42294288105404 L 520.9677419354839 104.87393674467603 L 537.0967741935484 104.37940082017849 L 553.2258064516129 103.90904556503119 L 569.3548387096774 103.46851355934814 L 585.483870967742 103.06335858869897 L 601.6129032258065 102.67706365374033 L 617.741935483871 102.3365541845451 L 633.8709677419355 102.00701650504197 L 650 101.69574852814003" /><text  class="poloto_labels poloto_text poloto_title" alignment-baseline="start" text-anchor="middle" font-size="x-large" x="400" y="37.5" > SSIM</text><text  class="poloto_labels poloto_text poloto_xname" alignment-baseline="start" text-anchor="middle" font-size="x-large" x="400" y="481.25" > frame</text><text  class="poloto_labels poloto_text poloto_yname" alignment-baseline="start" text-anchor="middle" font-size="x-large" transform="rotate(-90,37.5,250)" x="37.5" y="250" > similarity</text><line  class="poloto_axis_lines" stroke="black" x1="150" x2="150" y1="400" y2="405" /><text  class="poloto_tick_labels poloto_text" alignment-baseline="start" text-anchor="middle" x="150" y="430" > 0</text><line  class="poloto_axis_lines" stroke="black" x1="250.80645161290323" x2="250.80645161290323" y1="400" y2="405" /><text  class="poloto_tick_labels poloto_text" alignment-baseline="start" text-anchor="middle" x="250.80645161290323" y="430" > 200</text><line  class="poloto_axis_lines" stroke="black" x1="351.61290322580646" x2="351.61290322580646" y1="400" y2="405" /><text  class="poloto_tick_labels poloto_text" alignment-baseline="start" text-anchor="middle" x="351.61290322580646" y="430" > 400</text><line  class="poloto_axis_lines" stroke="black" x1="452.4193548387097" x2="452.4193548387097" y1="400" y2="405" /><text  class="poloto_tick_labels poloto_text" alignment-baseline="start" text-anchor="middle" x="452.4193548387097" y="430" > 600</text><line  class="poloto_axis_lines" stroke="black" x1="553.2258064516129" x2="553.2258064516129" y1="400" y2="405" /><text  class="poloto_tick_labels poloto_text" alignment-baseline="start" text-anchor="middle" x="553.2258064516129" y="430" > 800</text><line  class="poloto_axis_lines" stroke="black" x1="150" x2="144" y1="360.9688449326204" y2="360.9688449326204" /><text  class="poloto_tick_labels poloto_text" alignment-baseline="middle" text-anchor="end" x="135" y="360.9688449326204" > 0.970</text><line  class="poloto_axis_lines" stroke="black" x1="150" x2="144" y1="316.08523245325523" y2="316.08523245325523" /><text  class="poloto_tick_labels poloto_text" alignment-baseline="middle" text-anchor="end" x="135" y="316.08523245325523" > 0.975</text><line  class="poloto_axis_lines" stroke="black" x1="150" x2="144" y1="271.20161997389187" y2="271.20161997389187" /><text  class="poloto_tick_labels poloto_text" alignment-baseline="middle" text-anchor="end" x="135" y="271.20161997389187" > 0.980</text><line  class="poloto_axis_lines" stroke="black" x1="150" x2="144" y1="226.31800749452668" y2="226.31800749452668" /><text  class="poloto_tick_labels poloto_text" alignment-baseline="middle" text-anchor="end" x="135" y="226.31800749452668" > 0.985</text><line  class="poloto_axis_lines" stroke="black" x1="150" x2="144" y1="181.4343950151615" y2="181.4343950151615" /><text  class="poloto_tick_labels poloto_text" alignment-baseline="middle" text-anchor="end" x="135" y="181.4343950151615" > 0.990</text><line  class="poloto_axis_lines" stroke="black" x1="150" x2="144" y1="136.55078253579813" y2="136.55078253579813" /><text  class="poloto_tick_labels poloto_text" alignment-baseline="middle" text-anchor="end" x="135" y="136.55078253579813" > 0.995</text><path  stroke="black" fill="none" class="poloto_axis_lines" style="stroke-dasharray:12.600806451612904;stroke-dashoffset:-0;" d=" M 150 400 L 650 400" /><path  stroke="black" fill="none" class="poloto_axis_lines" style="stroke-dasharray:4.488361247936447;stroke-dashoffset:-39.031155067379586;" d=" M 150 400 L 150 100" /></svg>