<svg class="poloto" width="800" height="500" viewBox="0 0 800 500" xmlns="http://www.w3.org/2000/svg"><style>.poloto { stroke-linecap:round; stroke-linejoin:round; font-family: 'Tahoma', sans-serif; background-color: AliceBlue;} .poloto_scatter{stroke-width:7} .poloto_line{stroke-width:2} .poloto_text{fill: black;} .poloto_axis_lines{stroke: black;stroke-width:3;fill:none;stroke-dasharray:none} .poloto0stroke{stroke:  blue;} .poloto1stroke{stroke:  red;} .poloto2stroke{stroke:  green;} .poloto3stroke{stroke:  gold;} .poloto4stroke{stroke:  aqua;} .poloto5stroke{stroke:  lime;} .poloto6stroke{stroke:  orange;} .poloto7stroke{stroke:  chocolate;} .poloto0fill{fill:blue;} .poloto1fill{fill:red;} .poloto2fill{fill:green;} .poloto3fill{fill:gold;} .poloto4fill{fill:aqua;} .poloto5fill{fill:lime;} .poloto6fill{fill:orange;} .poloto7fill{fill:chocolate;}</style><text  class="poloto_text poloto_legend_text" alignment-baseline="middle" text-anchor="start" font-size="large" x="675" y="100" >hero</text><line  class="poloto_line poloto_legend_icon poloto0stroke poloto0legend" stroke="black" x1="680" x2="730" y1="81.25" y2="81.25" /><path  class="poloto_line poloto0stroke" fill="none" stroke="black" d=" M 150 160.8792979379948 L 166.1290322580645 250.58440379336054 L 182.25806451612902 289.4105177814034 L 198.38709677419354 311.92101365645834 L 214.51612903225805 327.1127390733226 L 230.64516129032256 338.2082538484349 L 246.7741935483871 346.2363104794076 L 262.9032258064516 353.10598475749543 L 279.0322580645161 358.56626359909956 L 295.1612903225806 363.1540610391626 L 311.2903225806451 367.0742279563039 L 327.41935483870964 370.44510707603183 L 343.5483870967742 373.37264986275665 L 359.6774193548387 376.09458665092194 L 375.80645161290323 378.61573754026114 L 391.93548387096774 380.79525391115834 L 408.06451612903226 382.87463990922646 L 424.19354838709677 384.6814587524446 L 440.3225806451613 386.3202417750932 L 456.4516129032258 387.8610883184708 L 472.5806451612903 389.26995577391517 L 488.7096774193548 390.5627608127647 L 504.83870967741933 391.78145965678345 L 520.9677419354839 392.9492747176577 L 537.0967741935484 393.9804355502644 L 553.2258064516129 394.96483937640323 L 569.3548387096774 395.9646073216862 L 585.483870967742 396.8146238402143 L 601.6129032258065 397.6978427201768 L 617.741935483871 398.5568199102558 L 633.8709677419355 399.3331099997849 L 650 400" /><text  class="poloto_text poloto_legend_text" alignment-baseline="middle" text-anchor="start" font-size="large" x="675" y="150" >random</text><line  class="poloto_line poloto_legend_icon poloto1stroke poloto1legend" stroke="black" x1="680" x2="730" y1="131.25" y2="131.25" /><path  class="poloto_line poloto1stroke" fill="none" stroke="black" d=" M 150 100 L 166.1290322580645 199.28114978052997 L 182.25806451612902 247.2892968211122 L 198.38709677419354 274.9848515735111 L 214.51612903225805 293.721688389529 L 230.64516129032256 307.5602512654803 L 246.7741935483871 318.0710328316815 L 262.9032258064516 326.61010070086525 L 279.0322580645161 333.61970138577294 L 295.1612903225806 339.6517655577547 L 311.2903225806451 344.49366315463215 L 327.41935483870964 348.7719971871999 L 343.5483870967742 352.7460975468057 L 359.6774193548387 356.2604596618392 L 375.80645161290323 359.2872909892657 L 391.93548387096774 362.12171660610596 L 408.06451612903226 364.6692530589925 L 424.19354838709677 367.0186170842801 L 440.3225806451613 369.1776635425099 L 456.4516129032258 371.1751325879277 L 472.5806451612903 372.9239288628582 L 488.7096774193548 374.61250984708255 L 504.83870967741933 376.3084498926133 L 520.9677419354839 377.80173531186455 L 537.0967741935484 379.16461338051806 L 553.2258064516129 380.5313045154521 L 569.3548387096774 381.7597182519438 L 585.483870967742 382.90091949726843 L 601.6129032258065 384.0182497932423 L 617.741935483871 385.05803520959284 L 633.8709677419355 386.053283983794 L 650 386.9796357185591" /><text  class="poloto_labels poloto_text poloto_title" alignment-baseline="start" text-anchor="middle" font-size="x-large" x="400" y="37.5" > Variance</text><text  class="poloto_labels poloto_text poloto_xname" alignment-baseline="start" text-anchor="middle" font-size="x-large" x="400" y="481.25" > frame</text><text  class="poloto_labels poloto_text poloto_yname" alignment-baseline="start" text-anchor="middle" font-size="x-large" transform="rotate(-90,37.5,250)" x="37.5" y="250" > error</text><line  class="poloto_axis_lines" stroke="black" x1="150" x2="150" y1="400" y2="405" /><text  class="poloto_tick_labels poloto_text" alignment-baseline="start" text-anchor="middle" x="150" y="430" > 0</text><line  class="poloto_axis_lines" stroke="black" x1="250.80645161290323" x2="250.80645161290323" y1="400" y2="405" /><text  class="poloto_tick_labels poloto_text" alignment-baseline="start" text-anchor="middle" x="250.80645161290323" y="430" > 200</text><line  class="poloto_axis_lines" stroke="black" x1="351.61290322580646" x2="351.61290322580646" y1="400" y2="405" /><text  class="poloto_tick_labels poloto_text" alignment-baseline="start" text-anchor="middle" x="351.61290322580646" y="430" > 400</text><line  class="poloto_axis_lines" stroke="black" x1="452.4193548387097" x2="452.4193548387097" y1="400" y2="405" /><text  class="poloto_tick_labels poloto_text" alignment-baseline="start" text-anchor="middle" x="452.4193548387097" y="430" > 600</text><line  class="poloto_axis_lines" stroke="black" x1="553.2258064516129" x2="553.2258064516129" y1="400" y2="405" /><text  class="poloto_tick_labels poloto_text" alignment-baseline="start" text-anchor="middle" x="553.2258064516129" y="430" > 800</text><line  class="poloto_axis_lines" stroke="black" x1="150" x2="144" y1="354.1841493921952" y2="354.1841493921952" /><text  class="poloto_tick_labels poloto_text" alignment-baseline="middle" text-anchor="end" x="135" y="354.1841493921952" > 1000</text><line  class="poloto_axis_lines" stroke="black" x1="150" x2="144" y1="307.27107476735" y2="307.27107476735" /><text  class="poloto_tick_labels poloto_text" alignment-baseline="middle" text-anchor="end" x="135" y="307.27107476735" > 1500</text><line  class="poloto_axis_lines" stroke="black" x1="150" x2="144" y1="260.3580001425048" y2="260.3580001425048" /><text  class="poloto_tick_labels poloto_text" alignment-baseline="middle" text-anchor="end" x="135" y="260.3580001425048" > 2000</text><line  class="poloto_axis_lines" stroke="black" x1="150" x2="144" y1="213.4449255176596" y2="213.4449255176596" /><text  class="poloto_tick_labels poloto_text" alignment-baseline="middle" text-anchor="end" x="135" y="213.4449255176596" > 2500</text><line  class="poloto_axis_lines" stroke="black" x1="150" x2="144" y1="166.53185089281442" y2="166.53185089281442" /><text  class="poloto_tick_labels poloto_text" alignment-baseline="middle" text-anchor="end" x="135" y="166.53185089281442" > 3000</text><line  class="poloto_axis_lines" stroke="black" x1="150" x2="144" y1="119.61877626796922" y2="119.61877626796922" /><text  class="poloto_tick_labels poloto_text" alignment-baseline="middle" text-anchor="end" x="135" y="119.61877626796922" > 3500</text><path  stroke="black" fill="none" class="poloto_axis_lines" style="stroke-dasharray:12.600806451612904;stroke-dashoffset:-0;" d=" M 150 400 L 650 400" /><path  stroke="black" fill="none" class="poloto_axis_lines" style="stroke-dasharray:4.691307462484519;stroke-dashoffset:-45.81585060780479;" d=" M 150 400 L 150 100" /></svg>