<svg class="poloto_background poloto" width="800" height="500" viewBox="0 0 800 500" xmlns="http://www.w3.org/2000/svg"><style>.poloto { stroke-linecap:round; stroke-linejoin:round; font-family: 'Tahoma', sans-serif; stroke-width:2; } .poloto_scatter{stroke-width:7} .poloto_text{fill: black;} .poloto_axis_lines{stroke: black;stroke-width:3;fill:none;stroke-dasharray:none} .poloto_background{background-color: AliceBlue;} .poloto0stroke{stroke:  blue;} .poloto1stroke{stroke:  red;} .poloto2stroke{stroke:  green;} .poloto3stroke{stroke:  gold;} .poloto4stroke{stroke:  aqua;} .poloto5stroke{stroke:  lime;} .poloto6stroke{stroke:  orange;} .poloto7stroke{stroke:  chocolate;} .poloto0fill{fill:blue;} .poloto1fill{fill:red;} .poloto2fill{fill:green;} .poloto3fill{fill:gold;} .poloto4fill{fill:aqua;} .poloto5fill{fill:lime;} .poloto6fill{fill:orange;} .poloto7fill{fill:chocolate;}</style><text  class="poloto_legend_text poloto_text" alignment-baseline="middle" text-anchor="start" font-size="large" x="675" y="100" >hero</text><line  class="poloto_legend_icon poloto0stroke poloto0legend" stroke="black" x1="680" x2="730" y1="81.25" y2="81.25" /><path  class="poloto0stroke" fill="none" stroke="black" d=" M 150 224.3607194427166 L 162.82051282051282 319.5804439929414 L 175.64102564102564 349.1381461588834 L 188.46153846153845 363.29059942304997 L 201.28205128205127 371.74132059783494 L 214.1025641025641 377.22306011947217 L 226.9230769230769 381.15300255088033 L 239.74358974358972 384.0764031416462 L 252.56410256410254 386.3086093655888 L 265.38461538461536 388.09535543473356 L 278.2051282051282 389.5537803791732 L 291.025641025641 390.7615715071798 L 303.8461538461538 391.79265793791046 L 316.66666666666663 392.6668847604841 L 329.48717948717945 393.43064856739727 L 342.30769230769226 394.09425443134535 L 355.1282051282051 394.67362072626395 L 367.9487179487179 395.1967397603272 L 380.7692307692307 395.66427192253366 L 393.58974358974353 396.0632540980014 L 406.4102564102564 396.42910763211427 L 419.2307692307692 396.7748313719304 L 432.05128205128204 397.0929780969189 L 444.87179487179486 397.3821583003832 L 457.6923076923077 397.6437185676671 L 470.5128205128205 397.88570076860407 L 483.3333333333333 398.1122592102767 L 496.15384615384613 398.3182081910245 L 508.97435897435895 398.50936360362454 L 521.7948717948718 398.68849997225766 L 534.6153846153845 398.8605344902431 L 547.4358974358975 399.0164423938658 L 560.2564102564102 399.1690125531323 L 573.0769230769231 399.3060137666019 L 585.8974358974358 399.44057125444607 L 598.7179487179487 399.565512521818 L 611.5384615384614 399.6855439509543 L 624.3589743589744 399.7933044115204 L 637.1794871794871 399.9023397959567 L 650 400" /><text  class="poloto_legend_text poloto_text" alignment-baseline="middle" text-anchor="start" font-size="large" x="675" y="150" >random</text><line  class="poloto_legend_icon poloto1stroke poloto1legend" stroke="black" x1="680" x2="730" y1="131.25" y2="131.25" /><path  class="poloto1stroke" fill="none" stroke="black" d=" M 150 100 L 162.82051282051282 254.69379478479928 L 175.64102564102564 305.7928464243266 L 188.46153846153845 330.8444113630635 L 201.28205128205127 345.7310733019749 L 214.1025641025641 355.56432249499414 L 226.9230769230769 362.5680144120279 L 239.74358974358972 367.80769249919615 L 252.56410256410254 371.8589969179099 L 265.38461538461536 375.0670255022217 L 278.2051282051282 377.7230013632548 L 291.025641025641 379.88700831978497 L 303.8461538461538 381.7087985026015 L 316.66666666666663 383.29371746317725 L 329.48717948717945 384.63942189703874 L 342.30769230769226 385.8261919080053 L 355.1282051282051 386.8861934752978 L 367.9487179487179 387.8343048598647 L 380.7692307692307 388.66466477633804 L 393.58974358974353 389.42684025547214 L 406.4102564102564 390.11541336108013 L 419.2307692307692 390.73520481179196 L 432.05128205128204 391.3087523488023 L 444.87179487179486 391.8191038250071 L 457.6923076923077 392.29217037352475 L 470.5128205128205 392.73816543901637 L 483.3333333333333 393.1425757750003 L 496.15384615384613 393.51714232693234 L 508.97435897435895 393.8624278007975 L 521.7948717948718 394.1887246332004 L 534.6153846153845 394.4971274858123 L 547.4358974358975 394.7835379923732 L 560.2564102564102 395.05272448421164 L 573.0769230769231 395.30437429319574 L 585.8974358974358 395.5348318831379 L 598.7179487179487 395.7650395454014 L 611.5384615384614 395.98104044980784 L 624.3589743589744 396.1841759851968 L 637.1794871794871 396.37008835681814 L 650 396.5516116533654" /><text  class="poloto_text" alignment-baseline="start" text-anchor="middle" font-size="x-large" x="400" y="37.5" >MSE</text><text  class="poloto_text" alignment-baseline="start" text-anchor="middle" font-size="x-large" x="400" y="481.25" >frame</text><text  class="poloto_text" alignment-baseline="start" text-anchor="middle" font-size="x-large" transform="rotate(-90,37.5,250)" x="37.5" y="250" >error</text><line  class="poloto_axis_lines" stroke="black" x1="150" x2="150" y1="400" y2="405" /><text  class="poloto_text" alignment-baseline="start" text-anchor="middle" x="150" y="430" > 0</text><line  class="poloto_axis_lines" stroke="black" x1="278.2051282051282" x2="278.2051282051282" y1="400" y2="405" /><text  class="poloto_text" alignment-baseline="start" text-anchor="middle" x="278.2051282051282" y="430" > 500</text><line  class="poloto_axis_lines" stroke="black" x1="406.4102564102564" x2="406.4102564102564" y1="400" y2="405" /><text  class="poloto_text" alignment-baseline="start" text-anchor="middle" x="406.4102564102564" y="430" > 1000</text><line  class="poloto_axis_lines" stroke="black" x1="534.6153846153845" x2="534.6153846153845" y1="400" y2="405" /><text  class="poloto_text" alignment-baseline="start" text-anchor="middle" x="534.6153846153845" y="430" > 1500</text><line  class="poloto_axis_lines" stroke="black" x1="150" x2="144" y1="349.41537736644625" y2="349.41537736644625" /><text  class="poloto_text" alignment-baseline="middle" text-anchor="end" x="135" y="349.41537736644625" > 2e7</text><line  class="poloto_axis_lines" stroke="black" x1="150" x2="144" y1="293.959149410901" y2="293.959149410901" /><text  class="poloto_text" alignment-baseline="middle" text-anchor="end" x="135" y="293.959149410901" > 4e7</text><line  class="poloto_axis_lines" stroke="black" x1="150" x2="144" y1="238.50292145535582" y2="238.50292145535582" /><text  class="poloto_text" alignment-baseline="middle" text-anchor="end" x="135" y="238.50292145535582" > 6e7</text><line  class="poloto_axis_lines" stroke="black" x1="150" x2="144" y1="183.04669349981054" y2="183.04669349981054" /><text  class="poloto_text" alignment-baseline="middle" text-anchor="end" x="135" y="183.04669349981054" > 8e7</text><line  class="poloto_axis_lines" stroke="black" x1="150" x2="144" y1="127.59046554426538" y2="127.59046554426538" /><text  class="poloto_text" alignment-baseline="middle" text-anchor="end" x="135" y="127.59046554426538" > 1e8</text><path  stroke="black" fill="none" class="poloto_axis_lines" style="stroke-dasharray:12.820512820512821;stroke-dashoffset:-0;" d=" M 150 400 L 650 400" /><path  stroke="black" fill="none" class="poloto_axis_lines" style="stroke-dasharray:13.864056988886304;stroke-dashoffset:-50.58462263355377;" d=" M 150 400 L 150 100" /></svg>