<svg class="poloto_background poloto" width="800" height="500" viewBox="0 0 800 500" xmlns="http://www.w3.org/2000/svg"><style>.poloto { stroke-linecap:round; stroke-linejoin:round; font-family: 'Tahoma', sans-serif; stroke-width:2; } .poloto_scatter{stroke-width:7} .poloto_text{fill: black;} .poloto_axis_lines{stroke: black;stroke-width:3;fill:none;stroke-dasharray:none} .poloto_background{background-color: AliceBlue;} .poloto0stroke{stroke:  blue;} .poloto1stroke{stroke:  red;} .poloto2stroke{stroke:  green;} .poloto3stroke{stroke:  gold;} .poloto4stroke{stroke:  aqua;} .poloto5stroke{stroke:  lime;} .poloto6stroke{stroke:  orange;} .poloto7stroke{stroke:  chocolate;} .poloto0fill{fill:blue;} .poloto1fill{fill:red;} .poloto2fill{fill:green;} .poloto3fill{fill:gold;} .poloto4fill{fill:aqua;} .poloto5fill{fill:lime;} .poloto6fill{fill:orange;} .poloto7fill{fill:chocolate;}</style><text  class="poloto_legend_text poloto_text" alignment-baseline="middle" text-anchor="start" font-size="large" x="675" y="100" >hero</text><line  class="poloto_legend_icon poloto0stroke poloto0legend" stroke="black" x1="680" x2="730" y1="81.25" y2="81.25" /><path  class="poloto0stroke" fill="none" stroke="black" d=" M 150 392.0734457468525 L 162.82051282051282 364.84000654712474 L 175.64102564102564 344.63844024063906 L 188.46153846153845 328.05266605594954 L 201.28205128205127 313.39198247244167 L 214.1025641025641 300.5228244413287 L 226.9230769230769 288.5123907691401 L 239.74358974358972 277.28164663896257 L 252.56410256410254 267.19910285659523 L 265.38461538461536 257.6455795786071 L 278.2051282051282 248.65231488351213 L 291.025641025641 240.39010150367108 L 303.8461538461538 232.2255119690123 L 316.66666666666663 224.5917103580736 L 329.48717948717945 217.31178770923864 L 342.30769230769226 210.20013386731466 L 355.1282051282051 203.55443437736048 L 367.9487179487179 197.11835780391766 L 380.7692307692307 190.99388270458047 L 393.58974358974353 185.41439895338948 L 406.4102564102564 179.91851140276856 L 419.2307692307692 174.4933312246087 L 432.05128205128204 169.16190131247362 L 444.87179487179486 164.01816102775382 L 457.6923076923077 159.14543376322223 L 470.5128205128205 154.1513861207095 L 483.3333333333333 149.63680717057656 L 496.15384615384613 145.29405083825435 L 508.97435897435895 140.95143269197956 L 521.7948717948718 136.84065334201006 L 534.6153846153845 132.65532836995504 L 547.4358974358975 128.7718128614939 L 560.2564102564102 124.75760861363557 L 573.0769230769231 121.1631566334878 L 585.8974358974358 117.40011045795228 L 598.7179487179487 113.79581025951597 L 611.5384615384614 110.11134814398076 L 624.3589743589744 106.74484507060362 L 637.1794871794871 103.21770596067523 L 650 100" /><text  class="poloto_legend_text poloto_text" alignment-baseline="middle" text-anchor="start" font-size="large" x="675" y="150" >random</text><line  class="poloto_legend_icon poloto1stroke poloto1legend" stroke="black" x1="680" x2="730" y1="131.25" y2="131.25" /><path  class="poloto1stroke" fill="none" stroke="black" d=" M 150 400 L 162.82051282051282 377.2985311780537 L 175.64102564102564 360.1537012702925 L 188.46153846153845 346.0158823012114 L 201.28205128205127 333.6354720436798 L 214.1025641025641 322.5639645848089 L 226.9230769230769 312.1993991836055 L 239.74358974358972 302.7744053381309 L 252.56410256410254 294.02800995196026 L 265.38461538461536 285.7529535502294 L 278.2051282051282 277.97566695555946 L 291.025641025641 270.60636280416134 L 303.8461538461538 263.84213333202615 L 316.66666666666663 257.12981958089796 L 329.48717948717945 250.9289406314029 L 342.30769230769226 244.98026126995978 L 355.1282051282051 239.309491547473 L 367.9487179487179 233.72532444247366 L 380.7692307692307 228.55178678826954 L 393.58974358974353 223.24938044526482 L 406.4102564102564 218.1643780773733 L 419.2307692307692 213.36578719257204 L 432.05128205128204 208.55094568267245 L 444.87179487179486 203.97543360099107 L 457.6923076923077 199.65571080695517 L 470.5128205128205 195.37146724923986 L 483.3333333333333 191.27707010873428 L 496.15384615384613 187.2769605708508 L 508.97435897435895 183.5151082721764 L 521.7948717948718 179.5819575362026 L 534.6153846153845 175.7815924728509 L 547.4358974358975 172.16364146335252 L 560.2564102564102 168.63650863219283 L 573.0769230769231 165.27131020598353 L 585.8974358974358 162.07836782259847 L 598.7179487179487 158.70905762545033 L 611.5384615384614 155.44598360072348 L 624.3589743589744 152.25889791288915 L 637.1794871794871 149.29512779714378 L 650 146.43996286822255" /><text  class="poloto_text" alignment-baseline="start" text-anchor="middle" font-size="x-large" x="400" y="37.5" >SNR</text><text  class="poloto_text" alignment-baseline="start" text-anchor="middle" font-size="x-large" x="400" y="481.25" >frame</text><text  class="poloto_text" alignment-baseline="start" text-anchor="middle" font-size="x-large" transform="rotate(-90,37.5,250)" x="37.5" y="250" >ratio (dB)</text><line  class="poloto_axis_lines" stroke="black" x1="150" x2="150" y1="400" y2="405" /><text  class="poloto_text" alignment-baseline="start" text-anchor="middle" x="150" y="430" > 0</text><line  class="poloto_axis_lines" stroke="black" x1="278.2051282051282" x2="278.2051282051282" y1="400" y2="405" /><text  class="poloto_text" alignment-baseline="start" text-anchor="middle" x="278.2051282051282" y="430" > 500</text><line  class="poloto_axis_lines" stroke="black" x1="406.4102564102564" x2="406.4102564102564" y1="400" y2="405" /><text  class="poloto_text" alignment-baseline="start" text-anchor="middle" x="406.4102564102564" y="430" > 1000</text><line  class="poloto_axis_lines" stroke="black" x1="534.6153846153845" x2="534.6153846153845" y1="400" y2="405" /><text  class="poloto_text" alignment-baseline="start" text-anchor="middle" x="534.6153846153845" y="430" > 1500</text><line  class="poloto_axis_lines" stroke="black" x1="150" x2="144" y1="395.84492017812534" y2="395.84492017812534" /><text  class="poloto_text" alignment-baseline="middle" text-anchor="end" x="135" y="395.84492017812534" > 5</text><line  class="poloto_axis_lines" stroke="black" x1="150" x2="144" y1="338.28829259310754" y2="338.28829259310754" /><text  class="poloto_text" alignment-baseline="middle" text-anchor="end" x="135" y="338.28829259310754" > 10</text><line  class="poloto_axis_lines" stroke="black" x1="150" x2="144" y1="280.73166500808975" y2="280.73166500808975" /><text  class="poloto_text" alignment-baseline="middle" text-anchor="end" x="135" y="280.73166500808975" > 15</text><line  class="poloto_axis_lines" stroke="black" x1="150" x2="144" y1="223.17503742307196" y2="223.17503742307196" /><text  class="poloto_text" alignment-baseline="middle" text-anchor="end" x="135" y="223.17503742307196" > 20</text><line  class="poloto_axis_lines" stroke="black" x1="150" x2="144" y1="165.61840983805416" y2="165.61840983805416" /><text  class="poloto_text" alignment-baseline="middle" text-anchor="end" x="135" y="165.61840983805416" > 25</text><line  class="poloto_axis_lines" stroke="black" x1="150" x2="144" y1="108.06178225303637" y2="108.06178225303637" /><text  class="poloto_text" alignment-baseline="middle" text-anchor="end" x="135" y="108.06178225303637" > 30</text><path  stroke="black" fill="none" class="poloto_axis_lines" style="stroke-dasharray:12.820512820512821;stroke-dashoffset:-0;" d=" M 150 400 L 650 400" /><path  stroke="black" fill="none" class="poloto_axis_lines" style="stroke-dasharray:5.75566275850178;stroke-dashoffset:-4.155079821874658;" d=" M 150 400 L 150 100" /></svg>
