e<svg class="poloto_background poloto" width="800" height="500" viewBox="0 0 800 500" xmlns="http://www.w3.org/2000/svg"><style>.poloto { stroke-linecap:round; stroke-linejoin:round; font-family: 'Tahoma', sans-serif; stroke-width:2; } .poloto_scatter{stroke-width:7} .poloto_text{fill: black;} .poloto_axis_lines{stroke: black;stroke-width:3;fill:none;stroke-dasharray:none} .poloto_background{background-color: AliceBlue;} .poloto0stroke{stroke:  blue;} .poloto1stroke{stroke:  red;} .poloto2stroke{stroke:  green;} .poloto3stroke{stroke:  gold;} .poloto4stroke{stroke:  aqua;} .poloto5stroke{stroke:  lime;} .poloto6stroke{stroke:  orange;} .poloto7stroke{stroke:  chocolate;} .poloto0fill{fill:blue;} .poloto1fill{fill:red;} .poloto2fill{fill:green;} .poloto3fill{fill:gold;} .poloto4fill{fill:aqua;} .poloto5fill{fill:lime;} .poloto6fill{fill:orange;} .poloto7fill{fill:chocolate;}</style><text  class="poloto_legend_text poloto_text" alignment-baseline="middle" text-anchor="start" font-size="large" x="675" y="100" >hero</text><line  class="poloto_legend_icon poloto0stroke poloto0legend" stroke="black" x1="680" x2="730" y1="81.25" y2="81.25" /><path  class="poloto0stroke" fill="none" stroke="black" d=" M 150 379.9591500471397 L 162.82051282051282 231.3225902906288 L 175.64102564102564 183.8526635647695 L 188.46153846153845 160.74432047767823 L 201.28205128205127 146.77345626075567 L 214.1025641025641 137.80702434479645 L 226.9230769230769 131.3363971111903 L 239.74358974358972 126.49550899170663 L 252.56410256410254 122.78189237718198 L 265.38461538461536 119.84374330653282 L 278.2051282051282 117.42479539071155 L 291.025641025641 115.42337676310399 L 303.8461538461538 113.6880466272487 L 316.66666666666663 112.22678713759706 L 329.48717948717945 110.96606261539 L 342.30769230769226 109.8620185686168 L 355.1282051282051 108.89497056265827 L 367.9487179487179 108.02252538777338 L 380.7692307692307 107.23798108112078 L 393.58974358974353 106.57747016417215 L 406.4102564102564 105.97643434272959 L 419.2307692307692 105.39101749535803 L 432.05128205128204 104.85963429166168 L 444.87179487179486 104.37837892480275 L 457.6923076923077 103.93956442794024 L 470.5128205128205 103.53729015095814 L 483.3333333333333 103.15362239655951 L 496.15384615384613 102.81297856987294 L 508.97435897435895 102.49665661315976 L 521.7948717948718 102.19567031416045 L 534.6153846153845 101.9093418363791 L 547.4358974358975 101.65289635548652 L 560.2564102564102 101.39595084381108 L 573.0769230769231 101.16740897400814 L 585.8974358974358 100.9381653437813 L 598.7179487179487 100.72883711872055 L 611.5384615384614 100.52907275357666 L 624.3589743589744 100.34668261957631 L 637.1794871794871 100.16309416378044 L 650 100" /><text  class="poloto_legend_text poloto_text" alignment-baseline="middle" text-anchor="start" font-size="large" x="675" y="150" >random</text><line  class="poloto_legend_icon poloto1stroke poloto1legend" stroke="black" x1="680" x2="730" y1="131.25" y2="131.25" /><path  class="poloto1stroke" fill="none" stroke="black" d=" M 150 400 L 162.82051282051282 248.5899727341348 L 175.64102564102564 197.15543770676777 L 188.46153846153845 171.38281999645915 L 201.28205128205127 155.96927622232852 L 214.1025641025641 145.56288835081796 L 226.9230769230769 138.08371235897357 L 239.74358974358972 132.49564475274474 L 252.56410256410254 128.14195699142783 L 265.38461538461536 124.65347148300498 L 278.2051282051282 121.76313233229212 L 291.025641025641 119.42787157904513 L 303.8461538461538 117.50285223240553 L 316.66666666666663 115.76677728191498 L 329.48717948717945 114.31934309839107 L 342.30769230769226 113.05840364469805 L 355.1282051282051 111.9137746230399 L 367.9487179487179 110.88743770658857 L 380.7692307692307 109.99974121688865 L 393.58974358974353 109.15622215352323 L 406.4102564102564 108.41085088032833 L 419.2307692307692 107.74364031632012 L 432.05128205128204 107.1016056513281 L 444.87179487179486 106.53729340947484 L 457.6923076923077 106.01835785641197 L 470.5128205128205 105.53090310022617 L 483.3333333333333 105.08890500706639 L 496.15384615384613 104.67419624837112 L 508.97435897435895 104.29655066066607 L 521.7948717948718 103.93701091523053 L 534.6153846153845 103.59404801708206 L 547.4358974358975 103.27546212137167 L 560.2564102564102 102.97752325446618 L 573.0769230769231 102.6975949271573 L 585.8974358974358 102.44341764922865 L 598.7179487179487 102.1951805790195 L 611.5384615384614 101.9512774069699 L 624.3589743589744 101.72587227534405 L 637.1794871794871 101.52771211453455 L 650 101.33637005534638" /><text  class="poloto_text" alignment-baseline="start" text-anchor="middle" font-size="x-large" x="400" y="37.5" >SSIM</text><text  class="poloto_text" alignment-baseline="start" text-anchor="middle" font-size="x-large" x="400" y="481.25" >frame</text><text  class="poloto_text" alignment-baseline="start" text-anchor="middle" font-size="x-large" transform="rotate(-90,37.5,250)" x="37.5" y="250" >value</text><line  class="poloto_axis_lines" stroke="black" x1="150" x2="150" y1="400" y2="405" /><text  class="poloto_text" alignment-baseline="start" text-anchor="middle" x="150" y="430" > 0</text><line  class="poloto_axis_lines" stroke="black" x1="278.2051282051282" x2="278.2051282051282" y1="400" y2="405" /><text  class="poloto_text" alignment-baseline="start" text-anchor="middle" x="278.2051282051282" y="430" > 500</text><line  class="poloto_axis_lines" stroke="black" x1="406.4102564102564" x2="406.4102564102564" y1="400" y2="405" /><text  class="poloto_text" alignment-baseline="start" text-anchor="middle" x="406.4102564102564" y="430" > 1000</text><line  class="poloto_axis_lines" stroke="black" x1="534.6153846153845" x2="534.6153846153845" y1="400" y2="405" /><text  class="poloto_text" alignment-baseline="start" text-anchor="middle" x="534.6153846153845" y="430" > 1500</text><line  class="poloto_axis_lines" stroke="black" x1="150" x2="144" y1="390.21534539283857" y2="390.21534539283857" /><text  class="poloto_text" alignment-baseline="middle" text-anchor="end" x="135" y="390.21534539283857" > 0.96</text><line  class="poloto_axis_lines" stroke="black" x1="150" x2="144" y1="315.65404236956147" y2="315.65404236956147" /><text  class="poloto_text" alignment-baseline="middle" text-anchor="end" x="135" y="315.65404236956147" > 0.97</text><line  class="poloto_axis_lines" stroke="black" x1="150" x2="144" y1="241.09273934628527" y2="241.09273934628527" /><text  class="poloto_text" alignment-baseline="middle" text-anchor="end" x="135" y="241.09273934628527" > 0.98</text><line  class="poloto_axis_lines" stroke="black" x1="150" x2="144" y1="166.53143632300817" y2="166.53143632300817" /><text  class="poloto_text" alignment-baseline="middle" text-anchor="end" x="135" y="166.53143632300817" > 0.99</text><path  stroke="black" fill="none" class="poloto_axis_lines" style="stroke-dasharray:12.820512820512821;stroke-dashoffset:-0;" d=" M 150 400 L 650 400" /><path  stroke="black" fill="none" class="poloto_axis_lines" style="stroke-dasharray:9.320162877909562;stroke-dashoffset:-9.784654607161428;" d=" M 150 400 L 150 100" /></svg>
