<svg class="poloto_background poloto" width="800" height="500" viewBox="0 0 800 500" xmlns="http://www.w3.org/2000/svg"><style>.poloto { stroke-linecap:round; stroke-linejoin:round; font-family: 'Tahoma', sans-serif; stroke-width:2; } .poloto_scatter{stroke-width:7} .poloto_text{fill: black;} .poloto_axis_lines{stroke: black;stroke-width:3;fill:none;stroke-dasharray:none} .poloto_background{background-color: AliceBlue;} .poloto0stroke{stroke:  blue;} .poloto1stroke{stroke:  red;} .poloto2stroke{stroke:  green;} .poloto3stroke{stroke:  gold;} .poloto4stroke{stroke:  aqua;} .poloto5stroke{stroke:  lime;} .poloto6stroke{stroke:  orange;} .poloto7stroke{stroke:  chocolate;} .poloto0fill{fill:blue;} .poloto1fill{fill:red;} .poloto2fill{fill:green;} .poloto3fill{fill:gold;} .poloto4fill{fill:aqua;} .poloto5fill{fill:lime;} .poloto6fill{fill:orange;} .poloto7fill{fill:chocolate;}</style><text  class="poloto_legend_text poloto_text" alignment-baseline="middle" text-anchor="start" font-size="large" x="675" y="100" >hero</text><line  class="poloto_legend_icon poloto0stroke poloto0legend" stroke="black" x1="680" x2="730" y1="81.25" y2="81.25" /><path  class="poloto0stroke" fill="none" stroke="black" d=" M 150 123.55298957085802 L 162.82051282051282 292.9457748008534 L 175.64102564102564 340.9098613155711 L 188.46153846153845 352.55760972486956 L 201.28205128205127 358.97273389747687 L 214.1025641025641 373.2469953107965 L 226.9230769230769 379.0046571810338 L 239.74358974358972 379.4497054798717 L 252.56410256410254 380.73716817989305 L 265.38461538461536 380.9716057147676 L 278.2051282051282 380.9865103883568 L 291.025641025641 385.4469477497043 L 303.8461538461538 388.7838027144784 L 316.66666666666663 391.02968665566374 L 329.48717948717945 394.3265111642262 L 342.30769230769226 395.45826639156263 L 355.1282051282051 395.3362813383716 L 367.9487179487179 396.678681054921 L 380.7692307692307 397.0934062271664 L 393.58974358974353 397.0918566344923 L 406.4102564102564 397.10736753713087 L 419.2307692307692 397.3890575663667 L 432.05128205128204 396.8588883884633 L 444.87179487179486 397.9618799871994 L 457.6923076923077 398.06207699619284 L 470.5128205128205 398.55430526831344 L 483.3333333333333 398.67606698016635 L 496.15384615384613 399.03755271872643 L 508.97435897435895 398.46693199067346 L 521.7948717948718 399.1213800104215 L 534.6153846153845 399.60534500679154 L 547.4358974358975 400 L 560.2564102564102 399.31823252344066 L 573.0769230769231 399.3921725389052 L 585.8974358974358 399.3665006666645 L 598.7179487179487 398.6484668726767 L 611.5384615384614 399.1245400427235 L 624.3589743589744 398.9616335263772 L 637.1794871794871 399.1838546202317 L 650 399.41170429315326" /><text  class="poloto_legend_text poloto_text" alignment-baseline="middle" text-anchor="start" font-size="large" x="675" y="150" >random</text><line  class="poloto_legend_icon poloto1stroke poloto1legend" stroke="black" x1="680" x2="730" y1="131.25" y2="131.25" /><path  class="poloto1stroke" fill="none" stroke="black" d=" M 150 100 L 162.82051282051282 218.6780785615916 L 175.64102564102564 264.9824115866109 L 188.46153846153845 343.20719288915706 L 201.28205128205127 350.7133047121369 L 214.1025641025641 367.94923688639597 L 226.9230769230769 376.4347153351797 L 239.74358974358972 376.9720836746649 L 252.56410256410254 381.59288848916265 L 265.38461538461536 378.0872884126483 L 278.2051282051282 379.51799274257627 L 291.025641025641 379.56911232027636 L 303.8461538461538 382.2804636659573 L 316.66666666666663 384.66892416569385 L 329.48717948717945 385.9853335068588 L 342.30769230769226 385.649552068664 L 355.1282051282051 386.4130680172508 L 367.9487179487179 389.63320802972345 L 380.7692307692307 389.9761954688863 L 393.58974358974353 391.85842605774286 L 406.4102564102564 391.8034162842952 L 419.2307692307692 391.099434127339 L 432.05128205128204 389.2949402387752 L 444.87179487179486 389.8777678562915 L 457.6923076923077 390.5789422093392 L 470.5128205128205 390.81925642791407 L 483.3333333333333 390.3728874200015 L 496.15384615384613 389.7791612404489 L 508.97435897435895 390.06733488995724 L 521.7948717948718 389.5750787886097 L 534.6153846153845 389.65389398936645 L 547.4358974358975 390.04199602507606 L 560.2564102564102 389.99383601490774 L 573.0769230769231 390.01527006190514 L 585.8974358974358 390.2608186514724 L 598.7179487179487 389.5488370068192 L 611.5384615384614 389.7771006984516 L 624.3589743589744 390.03109699135797 L 637.1794871794871 389.96862698044544 L 650 390.34427461166064" /><text  class="poloto_text" alignment-baseline="start" text-anchor="middle" font-size="x-large" x="400" y="37.5" >PSE</text><text  class="poloto_text" alignment-baseline="start" text-anchor="middle" font-size="x-large" x="400" y="481.25" >frame</text><text  class="poloto_text" alignment-baseline="start" text-anchor="middle" font-size="x-large" transform="rotate(-90,37.5,250)" x="37.5" y="250" >error</text><line  class="poloto_axis_lines" stroke="black" x1="150" x2="150" y1="400" y2="405" /><text  class="poloto_text" alignment-baseline="start" text-anchor="middle" x="150" y="430" > 0</text><line  class="poloto_axis_lines" stroke="black" x1="278.2051282051282" x2="278.2051282051282" y1="400" y2="405" /><text  class="poloto_text" alignment-baseline="start" text-anchor="middle" x="278.2051282051282" y="430" > 500</text><line  class="poloto_axis_lines" stroke="black" x1="406.4102564102564" x2="406.4102564102564" y1="400" y2="405" /><text  class="poloto_text" alignment-baseline="start" text-anchor="middle" x="406.4102564102564" y="430" > 1000</text><line  class="poloto_axis_lines" stroke="black" x1="534.6153846153845" x2="534.6153846153845" y1="400" y2="405" /><text  class="poloto_text" alignment-baseline="start" text-anchor="middle" x="534.6153846153845" y="430" > 1500</text><line  class="poloto_axis_lines" stroke="black" x1="150" x2="144" y1="346.76085946492043" y2="346.76085946492043" /><text  class="poloto_text" alignment-baseline="middle" text-anchor="end" x="135" y="346.76085946492043" > 5e8</text><line  class="poloto_axis_lines" stroke="black" x1="150" x2="144" y1="287.80063291822137" y2="287.80063291822137" /><text  class="poloto_text" alignment-baseline="middle" text-anchor="end" x="135" y="287.80063291822137" > 1e9</text><line  class="poloto_axis_lines" stroke="black" x1="150" x2="144" y1="228.84040637152225" y2="228.84040637152225" /><text  class="poloto_text" alignment-baseline="middle" text-anchor="end" x="135" y="228.84040637152225" > 1.5e9</text><line  class="poloto_axis_lines" stroke="black" x1="150" x2="144" y1="169.8801798248232" y2="169.8801798248232" /><text  class="poloto_text" alignment-baseline="middle" text-anchor="end" x="135" y="169.8801798248232" > 2.0e9</text><line  class="poloto_axis_lines" stroke="black" x1="150" x2="144" y1="110.91995327812407" y2="110.91995327812407" /><text  class="poloto_text" alignment-baseline="middle" text-anchor="end" x="135" y="110.91995327812407" > 2.5e9</text><path  stroke="black" fill="none" class="poloto_axis_lines" style="stroke-dasharray:12.820512820512821;stroke-dashoffset:-0;" d=" M 150 400 L 650 400" /><path  stroke="black" fill="none" class="poloto_axis_lines" style="stroke-dasharray:5.896022654669908;stroke-dashoffset:-53.23914053507957;" d=" M 150 400 L 150 100" /></svg>