<svg class="poloto_background poloto" width="800" height="500" viewBox="0 0 800 500" xmlns="http://www.w3.org/2000/svg"><style>.poloto { stroke-linecap:round; stroke-linejoin:round; font-family: 'Tahoma', sans-serif; stroke-width:2; } .poloto_scatter{stroke-width:7} .poloto_text{fill: black;} .poloto_axis_lines{stroke: black;stroke-width:3;fill:none;stroke-dasharray:none} .poloto_background{background-color: AliceBlue;} .poloto0stroke{stroke:  blue;} .poloto1stroke{stroke:  red;} .poloto2stroke{stroke:  green;} .poloto3stroke{stroke:  gold;} .poloto4stroke{stroke:  aqua;} .poloto5stroke{stroke:  lime;} .poloto6stroke{stroke:  orange;} .poloto7stroke{stroke:  chocolate;} .poloto0fill{fill:blue;} .poloto1fill{fill:red;} .poloto2fill{fill:green;} .poloto3fill{fill:gold;} .poloto4fill{fill:aqua;} .poloto5fill{fill:lime;} .poloto6fill{fill:orange;} .poloto7fill{fill:chocolate;}</style><text  class="poloto_legend_text poloto_text" alignment-baseline="middle" text-anchor="start" font-size="large" x="675" y="100" >hero</text><line  class="poloto_legend_icon poloto0stroke poloto0legend" stroke="black" x1="680" x2="730" y1="81.25" y2="81.25" /><path  class="poloto0stroke" fill="none" stroke="black" d=" M 150 354.78914868812126 L 162.82051282051282 303.8741786448087 L 175.64102564102564 274.7993667511423 L 188.46153846153845 254.4343213710383 L 201.28205128205127 238.77763044458007 L 214.1025641025641 226.23333816875427 L 226.9230769230769 215.64428730111953 L 239.74358974358972 206.51793028749327 L 252.56410256410254 198.44763942203443 L 265.38461538461536 191.33986957885557 L 278.2051282051282 184.77750450788258 L 291.025641025641 178.86388272202012 L 303.8461538461538 173.50938252543202 L 316.66666666666663 168.6070809706449 L 329.48717948717945 164.01556969427943 L 342.30769230769226 159.5931611557734 L 355.1282051282051 155.55894761518184 L 367.9487179487179 151.78693724163028 L 380.7692307692307 148.20052000112238 L 393.58974358974353 144.71534491597632 L 406.4102564102564 141.52396846215834 L 419.2307692307692 138.60212044948332 L 432.05128205128204 135.64905951486753 L 444.87179487179486 132.9479401499607 L 457.6923076923077 130.1755932122993 L 470.5128205128205 127.59836250487479 L 483.3333333333333 125.12078094003948 L 496.15384615384613 122.81831312949203 L 508.97435897435895 120.5506546685084 L 521.7948717948718 118.40344990587539 L 534.6153846153845 116.2180973378396 L 547.4358974358975 114.17767269189608 L 560.2564102564102 112.25852311729489 L 573.0769230769231 110.39285240789866 L 585.8974358974358 108.50845830389585 L 598.7179487179487 106.62877325025545 L 611.5384615384614 104.91822010340275 L 624.3589743589744 103.23754624180845 L 637.1794871794871 101.60939286774749 L 650 100" /><text  class="poloto_legend_text poloto_text" alignment-baseline="middle" text-anchor="start" font-size="large" x="675" y="150" >random</text><line  class="poloto_legend_icon poloto1stroke poloto1legend" stroke="black" x1="680" x2="730" y1="131.25" y2="131.25" /><path  class="poloto1stroke" fill="none" stroke="black" d=" M 150 400 L 162.82051282051282 351.7057594037526 L 175.64102564102564 323.1962876936793 L 188.46153846153845 303.06932667930664 L 201.28205128205127 287.6110816242657 L 214.1025641025641 275.11363195232866 L 226.9230769230769 264.4900802899533 L 239.74358974358972 255.33314794144408 L 252.56410256410254 247.29706567644556 L 265.38461538461536 240.04618938518317 L 278.2051282051282 233.51948077308285 L 291.025641025641 227.58001221938858 L 303.8461538461538 222.27555653691545 L 316.66666666666663 217.25922375476776 L 329.48717948717945 212.63942840507204 L 342.30769230769226 208.37010181122716 L 355.1282051282051 204.26911978100216 L 367.9487179487179 200.47435076916034 L 380.7692307692307 196.84353649956248 L 393.58974358974353 193.39171875981887 L 406.4102564102564 190.1441950860561 L 419.2307692307692 187.01890773799292 L 432.05128205128204 184.13153609689303 L 444.87179487179486 181.31712324190383 L 457.6923076923077 178.6868505412747 L 470.5128205128205 176.0697122439138 L 483.3333333333333 173.53704767200455 L 496.15384615384613 171.1513201589295 L 508.97435897435895 168.82866852136763 L 521.7948717948718 166.64528389774208 L 534.6153846153845 164.51794645954257 L 547.4358974358975 162.43622216441324 L 560.2564102564102 160.4014464112755 L 573.0769230769231 158.44893969214908 L 585.8974358974358 156.56285026112894 L 598.7179487179487 154.6783723757866 L 611.5384615384614 152.90452690185512 L 624.3589743589744 151.20858033159905 L 637.1794871794871 149.5331077038763 L 650 147.9295037342845" /><text  class="poloto_text" alignment-baseline="start" text-anchor="middle" font-size="x-large" x="400" y="37.5" >PSNR</text><text  class="poloto_text" alignment-baseline="start" text-anchor="middle" font-size="x-large" x="400" y="481.25" >frame</text><text  class="poloto_text" alignment-baseline="start" text-anchor="middle" font-size="x-large" transform="rotate(-90,37.5,250)" x="37.5" y="250" >ratio (dB)</text><line  class="poloto_axis_lines" stroke="black" x1="150" x2="150" y1="400" y2="405" /><text  class="poloto_text" alignment-baseline="start" text-anchor="middle" x="150" y="430" > 0</text><line  class="poloto_axis_lines" stroke="black" x1="278.2051282051282" x2="278.2051282051282" y1="400" y2="405" /><text  class="poloto_text" alignment-baseline="start" text-anchor="middle" x="278.2051282051282" y="430" > 500</text><line  class="poloto_axis_lines" stroke="black" x1="406.4102564102564" x2="406.4102564102564" y1="400" y2="405" /><text  class="poloto_text" alignment-baseline="start" text-anchor="middle" x="406.4102564102564" y="430" > 1000</text><line  class="poloto_axis_lines" stroke="black" x1="534.6153846153845" x2="534.6153846153845" y1="400" y2="405" /><text  class="poloto_text" alignment-baseline="start" text-anchor="middle" x="534.6153846153845" y="430" > 1500</text><line  class="poloto_axis_lines" stroke="black" x1="150" x2="144" y1="327.27567441518545" y2="327.27567441518545" /><text  class="poloto_text" alignment-baseline="middle" text-anchor="end" x="135" y="327.27567441518545" > 20</text><line  class="poloto_axis_lines" stroke="black" x1="150" x2="144" y1="248.97836792202077" y2="248.97836792202077" /><text  class="poloto_text" alignment-baseline="middle" text-anchor="end" x="135" y="248.97836792202077" > 25</text><line  class="poloto_axis_lines" stroke="black" x1="150" x2="144" y1="170.6810614288562" y2="170.6810614288562" /><text  class="poloto_text" alignment-baseline="middle" text-anchor="end" x="135" y="170.6810614288562" > 30</text><path  stroke="black" fill="none" class="poloto_axis_lines" style="stroke-dasharray:12.820512820512821;stroke-dashoffset:-0;" d=" M 150 400 L 650 400" /><path  stroke="black" fill="none" class="poloto_axis_lines" style="stroke-dasharray:7.829730649316467;stroke-dashoffset:-72.72432558481452;" d=" M 150 400 L 150 100" /></svg>