<svg class="poloto_background poloto" width="800" height="500" viewBox="0 0 800 500" xmlns="http://www.w3.org/2000/svg"><style>.poloto { stroke-linecap:round; stroke-linejoin:round; font-family: 'Tahoma', sans-serif; stroke-width:2; } .poloto_scatter{stroke-width:7} .poloto_text{fill: black;} .poloto_axis_lines{stroke: black;stroke-width:3;fill:none;stroke-dasharray:none} .poloto_background{background-color: AliceBlue;} .poloto0stroke{stroke:  blue;} .poloto1stroke{stroke:  red;} .poloto2stroke{stroke:  green;} .poloto3stroke{stroke:  gold;} .poloto4stroke{stroke:  aqua;} .poloto5stroke{stroke:  lime;} .poloto6stroke{stroke:  orange;} .poloto7stroke{stroke:  chocolate;} .poloto0fill{fill:blue;} .poloto1fill{fill:red;} .poloto2fill{fill:green;} .poloto3fill{fill:gold;} .poloto4fill{fill:aqua;} .poloto5fill{fill:lime;} .poloto6fill{fill:orange;} .poloto7fill{fill:chocolate;}</style><text  class="poloto_legend_text poloto_text" alignment-baseline="middle" text-anchor="start" font-size="large" x="675" y="100" >hero</text><line  class="poloto_legend_icon poloto0stroke poloto0legend" stroke="black" x1="680" x2="730" y1="81.25" y2="81.25" /><path  class="poloto0stroke" fill="none" stroke="black" d=" M 150 390.82494335516213 L 162.82051282051282 367.25757808308083 L 175.64102564102564 349.29540763753045 L 188.46153846153845 334.09643392657506 L 201.28205128205127 320.60994515828685 L 214.1025641025641 308.715115191954 L 226.9230769230769 297.6675094345712 L 239.74358974358972 287.5002224387716 L 252.56410256410254 277.5055725534793 L 265.38461538461536 268.816907436937 L 278.2051282051282 260.046524699312 L 291.025641025641 251.6959275075622 L 303.8461538461538 243.73932731689922 L 316.66666666666663 236.50964650843167 L 329.48717948717945 229.43869962337072 L 342.30769230769226 222.12858981565336 L 355.1282051282051 215.42635743140136 L 367.9487179487179 208.9102295396985 L 380.7692307692307 202.51628901717675 L 393.58974358974353 196.02256244874417 L 406.4102564102564 190.2265565076873 L 419.2307692307692 184.66845135678778 L 432.05128205128204 178.8736650993162 L 444.87179487179486 173.57126013683921 L 457.6923076923077 168.11042943510165 L 470.5128205128205 162.7866477046751 L 483.3333333333333 157.74769293169004 L 496.15384615384613 153.0335862903321 L 508.97435897435895 148.18572677570762 L 521.7948717948718 143.48800240775944 L 534.6153846153845 138.5915600731022 L 547.4358974358975 133.71528770114605 L 560.2564102564102 129.34976800257425 L 573.0769230769231 125.15644027267729 L 585.8974358974358 120.72261714031777 L 598.7179487179487 116.10751273973796 L 611.5384615384614 112.06951897843794 L 624.3589743589744 108.0035908544159 L 637.1794871794871 103.96463624260713 L 650 100.00000000000006" /><text  class="poloto_legend_text poloto_text" alignment-baseline="middle" text-anchor="start" font-size="large" x="675" y="150" >random</text><line  class="poloto_legend_icon poloto1stroke poloto1legend" stroke="black" x1="680" x2="730" y1="131.25" y2="131.25" /><path  class="poloto1stroke" fill="none" stroke="black" d=" M 150 400 L 162.82051282051282 380.55374128511676 L 175.64102564102564 365.8492489082099 L 188.46153846153845 353.3206432613506 L 201.28205128205127 342.4257342636579 L 214.1025641025641 332.446286302304 L 226.9230769230769 323.33760968073227 L 239.74358974358972 314.9281227675398 L 252.56410256410254 306.91352400173736 L 265.38461538461536 299.4286916794499 L 278.2051282051282 292.22646942418305 L 291.025641025641 285.3511206787863 L 303.8461538461538 279.2575862194608 L 316.66666666666663 272.8574516571076 L 329.48717948717945 266.97228495051536 L 342.30769230769226 261.459621081849 L 355.1282051282051 255.75333310019437 L 367.9487179487179 250.4906103723871 L 380.7692307692307 245.3550726856651 L 393.58974358974353 240.10080276648995 L 406.4102564102564 235.22657065665396 L 419.2307692307692 230.42921317668652 L 432.05128205128204 225.9321943568408 L 444.87179487179486 221.35495250581823 L 457.6923076923077 216.98010868056565 L 470.5128205128205 212.49841693379375 L 483.3333333333333 208.10510689086914 L 496.15384615384613 203.95870212733405 L 508.97435897435895 199.8996030866341 L 521.7948717948718 195.9866962424569 L 534.6153846153845 192.09426959363986 L 547.4358974358975 188.10399473807365 L 560.2564102564102 184.24591357804036 L 573.0769230769231 180.5844122597395 L 585.8974358974358 177.03481029842794 L 598.7179487179487 173.14189058183217 L 611.5384615384614 169.48730828658182 L 624.3589743589744 166.05329851711264 L 637.1794871794871 162.59103543908424 L 650 159.3786632434809" /><text  class="poloto_text" alignment-baseline="start" text-anchor="middle" font-size="x-large" x="400" y="37.5" >SNR</text><text  class="poloto_text" alignment-baseline="start" text-anchor="middle" font-size="x-large" x="400" y="481.25" >frame</text><text  class="poloto_text" alignment-baseline="start" text-anchor="middle" font-size="x-large" transform="rotate(-90,37.5,250)" x="37.5" y="250" >ratio (dB)</text><line  class="poloto_axis_lines" stroke="black" x1="150" x2="150" y1="400" y2="405" /><text  class="poloto_text" alignment-baseline="start" text-anchor="middle" x="150" y="430" > 0</text><line  class="poloto_axis_lines" stroke="black" x1="278.2051282051282" x2="278.2051282051282" y1="400" y2="405" /><text  class="poloto_text" alignment-baseline="start" text-anchor="middle" x="278.2051282051282" y="430" > 500</text><line  class="poloto_axis_lines" stroke="black" x1="406.4102564102564" x2="406.4102564102564" y1="400" y2="405" /><text  class="poloto_text" alignment-baseline="start" text-anchor="middle" x="406.4102564102564" y="430" > 1000</text><line  class="poloto_axis_lines" stroke="black" x1="534.6153846153845" x2="534.6153846153845" y1="400" y2="405" /><text  class="poloto_text" alignment-baseline="start" text-anchor="middle" x="534.6153846153845" y="430" > 1500</text><line  class="poloto_axis_lines" stroke="black" x1="150" x2="144" y1="392.7937458891099" y2="392.7937458891099" /><text  class="poloto_text" alignment-baseline="middle" text-anchor="end" x="135" y="392.7937458891099" > 5</text><line  class="poloto_axis_lines" stroke="black" x1="150" x2="144" y1="338.87590459158605" y2="338.87590459158605" /><text  class="poloto_text" alignment-baseline="middle" text-anchor="end" x="135" y="338.87590459158605" > 10</text><line  class="poloto_axis_lines" stroke="black" x1="150" x2="144" y1="284.95806329406224" y2="284.95806329406224" /><text  class="poloto_text" alignment-baseline="middle" text-anchor="end" x="135" y="284.95806329406224" > 15</text><line  class="poloto_axis_lines" stroke="black" x1="150" x2="144" y1="231.04022199653843" y2="231.04022199653843" /><text  class="poloto_text" alignment-baseline="middle" text-anchor="end" x="135" y="231.04022199653843" > 20</text><line  class="poloto_axis_lines" stroke="black" x1="150" x2="144" y1="177.12238069901463" y2="177.12238069901463" /><text  class="poloto_text" alignment-baseline="middle" text-anchor="end" x="135" y="177.12238069901463" > 25</text><line  class="poloto_axis_lines" stroke="black" x1="150" x2="144" y1="123.20453940149082" y2="123.20453940149082" /><text  class="poloto_text" alignment-baseline="middle" text-anchor="end" x="135" y="123.20453940149082" > 30</text><path  stroke="black" fill="none" class="poloto_axis_lines" style="stroke-dasharray:12.820512820512821;stroke-dashoffset:-0;" d=" M 150 400 L 650 400" /><path  stroke="black" fill="none" class="poloto_axis_lines" style="stroke-dasharray:5.391784129752382;stroke-dashoffset:-7.206254110890107;" d=" M 150 400 L 150 100" /></svg>