<svg class="poloto_background poloto" width="800" height="500" viewBox="0 0 800 500" xmlns="http://www.w3.org/2000/svg"><style>.poloto { stroke-linecap:round; stroke-linejoin:round; font-family: 'Tahoma', sans-serif; stroke-width:2; } .poloto_scatter{stroke-width:7} .poloto_text{fill: black;} .poloto_axis_lines{stroke: black;stroke-width:3;fill:none;stroke-dasharray:none} .poloto_background{background-color: AliceBlue;} .poloto0stroke{stroke:  blue;} .poloto1stroke{stroke:  red;} .poloto2stroke{stroke:  green;} .poloto3stroke{stroke:  gold;} .poloto4stroke{stroke:  aqua;} .poloto5stroke{stroke:  lime;} .poloto6stroke{stroke:  orange;} .poloto7stroke{stroke:  chocolate;} .poloto0fill{fill:blue;} .poloto1fill{fill:red;} .poloto2fill{fill:green;} .poloto3fill{fill:gold;} .poloto4fill{fill:aqua;} .poloto5fill{fill:lime;} .poloto6fill{fill:orange;} .poloto7fill{fill:chocolate;}</style><text  class="poloto_legend_text poloto_text" alignment-baseline="middle" text-anchor="start" font-size="large" x="675" y="100" >hero</text><line  class="poloto_legend_icon poloto0stroke poloto0legend" stroke="black" x1="680" x2="730" y1="81.25" y2="81.25" /><path  class="poloto0stroke" fill="none" stroke="black" d=" M 150 379.8939706031988 L 162.82051282051282 231.5935732057742 L 175.64102564102564 183.97701948985468 L 188.46153846153845 160.6479536345323 L 201.28205128205127 146.83424822472261 L 214.1025641025641 137.82014488059485 L 226.9230769230769 131.399353462024 L 239.74358974358972 126.59822082842948 L 252.56410256410254 122.84705200490043 L 265.38461538461536 119.89894930969604 L 278.2051282051282 117.4280894372223 L 291.025641025641 115.3920599191506 L 303.8461538461538 113.69685797095099 L 316.66666666666663 112.25455341863471 L 329.48717948717945 110.99823338111037 L 342.30769230769226 109.8643393855973 L 355.1282051282051 108.89448432849895 L 367.9487179487179 108.03534231544472 L 380.7692307692307 107.26248471684448 L 393.58974358974353 106.54557823964024 L 406.4102564102564 105.92384913516617 L 419.2307692307692 105.38104753768403 L 432.05128205128204 104.85233743475965 L 444.87179487179486 104.38893122031732 L 457.6923076923077 103.92893890938103 L 470.5128205128205 103.52062508205472 L 483.3333333333333 103.14356561021941 L 496.15384615384613 102.80649658378934 L 508.97435897435895 102.48391220302346 L 521.7948717948718 102.18826167285624 L 534.6153846153845 101.89427511283156 L 547.4358974358975 101.63007526131969 L 560.2564102564102 101.38905398834504 L 573.0769230769231 101.16219481349253 L 585.8974358974358 100.93804368806923 L 598.7179487179487 100.71880462950594 L 611.5384615384614 100.52635151683262 L 624.3589743589744 100.34256899533466 L 637.1794871794871 100.16844902906269 L 650 100" /><text  class="poloto_legend_text poloto_text" alignment-baseline="middle" text-anchor="start" font-size="large" x="675" y="150" >random</text><line  class="poloto_legend_icon poloto1stroke poloto1legend" stroke="black" x1="680" x2="730" y1="131.25" y2="131.25" /><path  class="poloto1stroke" fill="none" stroke="black" d=" M 150 400 L 162.82051282051282 249.49908128422976 L 175.64102564102564 197.42225632841473 L 188.46153846153845 171.50866589743782 L 201.28205128205127 156.05553442793098 L 214.1025641025641 145.79763057382752 L 226.9230769230769 138.255091160363 L 239.74358974358972 132.65770603252713 L 252.56410256410254 128.23056842873393 L 265.38461538461536 124.74370295178505 L 278.2051282051282 121.90369335866126 L 291.025641025641 119.53160466423378 L 303.8461538461538 117.55841137378593 L 316.66666666666663 115.8303786047345 L 329.48717948717945 114.36506471327084 L 342.30769230769226 113.09181803748561 L 355.1282051282051 111.93163343776177 L 367.9487179487179 110.91349716375953 L 380.7692307692307 109.99415601966575 L 393.58974358974353 109.15431418172193 L 406.4102564102564 108.40190070889366 L 419.2307692307692 107.72748639928523 L 432.05128205128204 107.12524727145683 L 444.87179487179486 106.55951765942518 L 457.6923076923077 106.03548646045874 L 470.5128205128205 105.549754407205 L 483.3333333333333 105.0940029309968 L 496.15384615384613 104.69109563476741 L 508.97435897435895 104.3063017210643 L 521.7948717948718 103.95553147372266 L 534.6153846153845 103.62256947048263 L 547.4358974358975 103.30599291397357 L 560.2564102564102 103.0075405580128 L 573.0769230769231 102.72847530361742 L 585.8974358974358 102.469404103319 L 598.7179487179487 102.2102461981276 L 611.5384615384614 101.97393272092995 L 624.3589743589744 101.75739064812751 L 637.1794871794871 101.54519628436447 L 650 101.34752791082246" /><text  class="poloto_text" alignment-baseline="start" text-anchor="middle" font-size="x-large" x="400" y="37.5" >SSIM</text><text  class="poloto_text" alignment-baseline="start" text-anchor="middle" font-size="x-large" x="400" y="481.25" >frame</text><text  class="poloto_text" alignment-baseline="start" text-anchor="middle" font-size="x-large" transform="rotate(-90,37.5,250)" x="37.5" y="250" >similarity</text><line  class="poloto_axis_lines" stroke="black" x1="150" x2="150" y1="400" y2="405" /><text  class="poloto_text" alignment-baseline="start" text-anchor="middle" x="150" y="430" > 0</text><line  class="poloto_axis_lines" stroke="black" x1="278.2051282051282" x2="278.2051282051282" y1="400" y2="405" /><text  class="poloto_text" alignment-baseline="start" text-anchor="middle" x="278.2051282051282" y="430" > 500</text><line  class="poloto_axis_lines" stroke="black" x1="406.4102564102564" x2="406.4102564102564" y1="400" y2="405" /><text  class="poloto_text" alignment-baseline="start" text-anchor="middle" x="406.4102564102564" y="430" > 1000</text><line  class="poloto_axis_lines" stroke="black" x1="534.6153846153845" x2="534.6153846153845" y1="400" y2="405" /><text  class="poloto_text" alignment-baseline="start" text-anchor="middle" x="534.6153846153845" y="430" > 1500</text><line  class="poloto_axis_lines" stroke="black" x1="150" x2="144" y1="397.70615571695726" y2="397.70615571695726" /><text  class="poloto_text" alignment-baseline="middle" text-anchor="end" x="135" y="397.70615571695726" > 0.95</text><line  class="poloto_axis_lines" stroke="black" x1="150" x2="144" y1="336.7520503438809" y2="336.7520503438809" /><text  class="poloto_text" alignment-baseline="middle" text-anchor="end" x="135" y="336.7520503438809" > 0.96</text><line  class="poloto_axis_lines" stroke="black" x1="150" x2="144" y1="275.79794497080456" y2="275.79794497080456" /><text  class="poloto_text" alignment-baseline="middle" text-anchor="end" x="135" y="275.79794497080456" > 0.97</text><line  class="poloto_axis_lines" stroke="black" x1="150" x2="144" y1="214.8438395977273" y2="214.8438395977273" /><text  class="poloto_text" alignment-baseline="middle" text-anchor="end" x="135" y="214.8438395977273" > 0.98</text><line  class="poloto_axis_lines" stroke="black" x1="150" x2="144" y1="153.88973422465097" y2="153.88973422465097" /><text  class="poloto_text" alignment-baseline="middle" text-anchor="end" x="135" y="153.88973422465097" > 0.99</text><path  stroke="black" fill="none" class="poloto_axis_lines" style="stroke-dasharray:12.820512820512821;stroke-dashoffset:-0;" d=" M 150 400 L 650 400" /><path  stroke="black" fill="none" class="poloto_axis_lines" style="stroke-dasharray:7.619263171634547;stroke-dashoffset:-2.293844283042745;" d=" M 150 400 L 150 100" /></svg>