<svg class="poloto_background poloto" width="800" height="500" viewBox="0 0 800 500" xmlns="http://www.w3.org/2000/svg"><style>.poloto { stroke-linecap:round; stroke-linejoin:round; font-family: 'Tahoma', sans-serif; stroke-width:2; } .poloto_scatter{stroke-width:7} .poloto_text{fill: black;} .poloto_axis_lines{stroke: black;stroke-width:3;fill:none;stroke-dasharray:none} .poloto_background{background-color: AliceBlue;} .poloto0stroke{stroke:  blue;} .poloto1stroke{stroke:  red;} .poloto2stroke{stroke:  green;} .poloto3stroke{stroke:  gold;} .poloto4stroke{stroke:  aqua;} .poloto5stroke{stroke:  lime;} .poloto6stroke{stroke:  orange;} .poloto7stroke{stroke:  chocolate;} .poloto0fill{fill:blue;} .poloto1fill{fill:red;} .poloto2fill{fill:green;} .poloto3fill{fill:gold;} .poloto4fill{fill:aqua;} .poloto5fill{fill:lime;} .poloto6fill{fill:orange;} .poloto7fill{fill:chocolate;}</style><text  class="poloto_legend_text poloto_text" alignment-baseline="middle" text-anchor="start" font-size="large" x="675" y="100" >hero</text><line  class="poloto_legend_icon poloto0stroke poloto0legend" stroke="black" x1="680" x2="730" y1="81.25" y2="81.25" /><path  class="poloto0stroke" fill="none" stroke="black" d=" M 150 151.32854552340797 L 162.82051282051282 251.81190958903028 L 175.64102564102564 365.0812236806232 L 188.46153846153845 342.057317149434 L 201.28205128205127 370.5263696465452 L 214.1025641025641 380.6158360480736 L 226.9230769230769 385.2802913484657 L 239.74358974358972 389.4178211278902 L 252.56410256410254 389.7065283350938 L 265.38461538461536 392.08096765090056 L 278.2051282051282 392.4021668415103 L 291.025641025641 395.1362096516554 L 303.8461538461538 396.1194028048056 L 316.66666666666663 395.67359438465695 L 329.48717948717945 396.70148825954584 L 342.30769230769226 396.5437782646554 L 355.1282051282051 398.1710800390904 L 367.9487179487179 399.1926971906426 L 380.7692307692307 398.2256180955066 L 393.58974358974353 398.84225976227157 L 406.4102564102564 398.97554258783026 L 419.2307692307692 400 L 432.05128205128204 399.3346058706829 L 444.87179487179486 399.02226392118854 L 457.6923076923077 399.478018048275 L 470.5128205128205 398.4354981459027 L 483.3333333333333 398.1808518967124 L 496.15384615384613 398.36858771007195 L 508.97435897435895 399.12117046773307 L 521.7948717948718 398.9621486632374 L 534.6153846153845 399.5832157540424 L 547.4358974358975 399.4960686804281 L 560.2564102564102 398.48075238076524 L 573.0769230769231 398.1648762169792 L 585.8974358974358 398.4124303214873 L 598.7179487179487 398.7270786100352 L 611.5384615384614 399.2767032216383 L 624.3589743589744 398.37144684045506 L 637.1794871794871 398.77826238517036 L 650 398.917475472796" /><text  class="poloto_legend_text poloto_text" alignment-baseline="middle" text-anchor="start" font-size="large" x="675" y="150" >random</text><line  class="poloto_legend_icon poloto1stroke poloto1legend" stroke="black" x1="680" x2="730" y1="131.25" y2="131.25" /><path  class="poloto1stroke" fill="none" stroke="black" d=" M 150 100 L 162.82051282051282 280.34341564832283 L 175.64102564102564 331.96633827948165 L 188.46153846153845 344.22468718500886 L 201.28205128205127 369.26144047876966 L 214.1025641025641 377.273624405251 L 226.9230769230769 377.85238661586556 L 239.74358974358972 381.27263556629146 L 252.56410256410254 383.0274588040872 L 265.38461538461536 384.0732263684093 L 278.2051282051282 385.50911468435186 L 291.025641025641 384.31497229720264 L 303.8461538461538 384.8466445437924 L 316.66666666666663 388.0185038612375 L 329.48717948717945 388.89075722864175 L 342.30769230769226 388.5488173815918 L 355.1282051282051 388.2761506093825 L 367.9487179487179 388.0533909643975 L 380.7692307692307 387.97924041605063 L 393.58974358974353 387.10317958365084 L 406.4102564102564 387.5144633444975 L 419.2307692307692 388.6298406491501 L 432.05128205128204 388.3606141548585 L 444.87179487179486 387.84185418982855 L 457.6923076923077 387.81573327858706 L 470.5128205128205 387.9720959928375 L 483.3333333333333 388.5308937852376 L 496.15384615384613 387.78436244797433 L 508.97435897435895 387.6386936320227 L 521.7948717948718 389.0835544699436 L 534.6153846153845 389.579208871027 L 547.4358974358975 390.80123169772327 L 560.2564102564102 390.60667358764067 L 573.0769230769231 390.163609635693 L 585.8974358974358 389.71642475379144 L 598.7179487179487 390.0019897841282 L 611.5384615384614 390.33244464631343 L 624.3589743589744 390.95768082106423 L 637.1794871794871 391.16636980773217 L 650 391.4275425210911" /><text  class="poloto_text" alignment-baseline="start" text-anchor="middle" font-size="x-large" x="400" y="37.5" >PSE</text><text  class="poloto_text" alignment-baseline="start" text-anchor="middle" font-size="x-large" x="400" y="481.25" >frame</text><text  class="poloto_text" alignment-baseline="start" text-anchor="middle" font-size="x-large" transform="rotate(-90,37.5,250)" x="37.5" y="250" >error</text><line  class="poloto_axis_lines" stroke="black" x1="150" x2="150" y1="400" y2="405" /><text  class="poloto_text" alignment-baseline="start" text-anchor="middle" x="150" y="430" > 0</text><line  class="poloto_axis_lines" stroke="black" x1="278.2051282051282" x2="278.2051282051282" y1="400" y2="405" /><text  class="poloto_text" alignment-baseline="start" text-anchor="middle" x="278.2051282051282" y="430" > 500</text><line  class="poloto_axis_lines" stroke="black" x1="406.4102564102564" x2="406.4102564102564" y1="400" y2="405" /><text  class="poloto_text" alignment-baseline="start" text-anchor="middle" x="406.4102564102564" y="430" > 1000</text><line  class="poloto_axis_lines" stroke="black" x1="534.6153846153845" x2="534.6153846153845" y1="400" y2="405" /><text  class="poloto_text" alignment-baseline="start" text-anchor="middle" x="534.6153846153845" y="430" > 1500</text><line  class="poloto_axis_lines" stroke="black" x1="150" x2="144" y1="357.4437028681182" y2="357.4437028681182" /><text  class="poloto_text" alignment-baseline="middle" text-anchor="end" x="135" y="357.4437028681182" > 5e8</text><line  class="poloto_axis_lines" stroke="black" x1="150" x2="144" y1="305.88696630064135" y2="305.88696630064135" /><text  class="poloto_text" alignment-baseline="middle" text-anchor="end" x="135" y="305.88696630064135" > 1e9</text><line  class="poloto_axis_lines" stroke="black" x1="150" x2="144" y1="254.33022973316451" y2="254.33022973316451" /><text  class="poloto_text" alignment-baseline="middle" text-anchor="end" x="135" y="254.33022973316451" > 1.5e9</text><line  class="poloto_axis_lines" stroke="black" x1="150" x2="144" y1="202.77349316568763" y2="202.77349316568763" /><text  class="poloto_text" alignment-baseline="middle" text-anchor="end" x="135" y="202.77349316568763" > 2.0e9</text><line  class="poloto_axis_lines" stroke="black" x1="150" x2="144" y1="151.2167565982108" y2="151.2167565982108" /><text  class="poloto_text" alignment-baseline="middle" text-anchor="end" x="135" y="151.2167565982108" > 2.5e9</text><path  stroke="black" fill="none" class="poloto_axis_lines" style="stroke-dasharray:12.820512820512821;stroke-dashoffset:-0;" d=" M 150 400 L 650 400" /><path  stroke="black" fill="none" class="poloto_axis_lines" style="stroke-dasharray:5.155673656747686;stroke-dashoffset:-42.5562971318818;" d=" M 150 400 L 150 100" /></svg>