<svg class="poloto_background poloto" width="800" height="500" viewBox="0 0 800 500" xmlns="http://www.w3.org/2000/svg"><style>.poloto { stroke-linecap:round; stroke-linejoin:round; font-family: 'Tahoma', sans-serif; stroke-width:2; } .poloto_scatter{stroke-width:7} .poloto_text{fill: black;} .poloto_axis_lines{stroke: black;stroke-width:3;fill:none;stroke-dasharray:none} .poloto_background{background-color: AliceBlue;} .poloto0stroke{stroke:  blue;} .poloto1stroke{stroke:  red;} .poloto2stroke{stroke:  green;} .poloto3stroke{stroke:  gold;} .poloto4stroke{stroke:  aqua;} .poloto5stroke{stroke:  lime;} .poloto6stroke{stroke:  orange;} .poloto7stroke{stroke:  chocolate;} .poloto0fill{fill:blue;} .poloto1fill{fill:red;} .poloto2fill{fill:green;} .poloto3fill{fill:gold;} .poloto4fill{fill:aqua;} .poloto5fill{fill:lime;} .poloto6fill{fill:orange;} .poloto7fill{fill:chocolate;}</style><text  class="poloto_legend_text poloto_text" alignment-baseline="middle" text-anchor="start" font-size="large" x="675" y="100" >hero</text><line  class="poloto_legend_icon poloto0stroke poloto0legend" stroke="black" x1="680" x2="730" y1="81.25" y2="81.25" /><path  class="poloto0stroke" fill="none" stroke="black" d=" M 150 361.98932975269634 L 162.82051282051282 307.6153759855129 L 175.64102564102564 276.75642269602884 L 188.46153846153845 255.5109602370992 L 201.28205128205127 239.0334455564613 L 214.1025641025641 225.91538927916457 L 226.9230769230769 214.79623104706104 L 239.74358974358972 205.25639680351696 L 252.56410256410254 197.0209517466273 L 265.38461538461536 189.68092410526492 L 278.2051282051282 183.084932504213 L 291.025641025641 177.12832657996455 L 303.8461538461538 171.62491332439754 L 316.66666666666663 166.6075115671661 L 329.48717948717945 161.92067203962182 L 342.30769230769226 157.58705935018872 L 355.1282051282051 153.57953233798958 L 367.9487179487179 149.76042055998857 L 380.7692307692307 146.16814731542763 L 393.58974358974353 142.95526065699096 L 406.4102564102564 139.87857184615336 L 419.2307692307692 136.84609318675075 L 432.05128205128204 133.93884196044564 L 444.87179487179486 131.1912141694355 L 457.6923076923077 128.61305320349368 L 470.5128205128205 126.1433934996038 L 483.3333333333333 123.75234390809646 L 496.15384615384613 121.50821187462282 L 508.97435897435895 119.3612512199013 L 521.7948717948718 117.2899070338226 L 534.6153846153845 115.24339826381583 L 547.4358974358975 113.3374904537136 L 560.2564102564102 111.42260419523325 L 573.0769230769231 109.65894958797105 L 585.8974358974358 107.88397650312731 L 598.7179487179487 106.1960283979688 L 611.5384615384614 104.53655258896742 L 624.3589743589744 103.01367467463956 L 637.1794871794871 101.43952767254837 L 650 100" /><text  class="poloto_legend_text poloto_text" alignment-baseline="middle" text-anchor="start" font-size="large" x="675" y="150" >random</text><line  class="poloto_legend_icon poloto1stroke poloto1legend" stroke="black" x1="680" x2="730" y1="131.25" y2="131.25" /><path  class="poloto1stroke" fill="none" stroke="black" d=" M 150 400 L 162.82051282051282 348.64670566206354 L 175.64102564102564 318.48292844551526 L 188.46153846153845 297.342963910776 L 201.28205128205127 281.05979349820285 L 214.1025641025641 267.8713861064911 L 226.9230769230769 256.7604685051289 L 239.74358974358972 247.170533081533 L 252.56410256410254 238.77538120574206 L 265.38461538461536 231.3612650502601 L 278.2051282051282 224.591978349766 L 291.025641025641 218.56755415049633 L 303.8461538461538 213.0765150513164 L 316.66666666666663 207.93598660204424 L 329.48717948717945 203.2657328674975 L 342.30769230769226 198.88168250443152 L 355.1282051282051 194.72847680393124 L 367.9487179487179 190.80078524486782 L 380.7692307692307 187.1770041122308 L 393.58974358974353 183.68348211091023 L 406.4102564102564 180.37578080151786 L 419.2307692307692 177.26372508222335 L 432.05128205128204 174.2598276564421 L 444.87179487179486 171.4781165669961 L 457.6923076923077 168.80072553043658 L 470.5128205128205 166.1826895838605 L 483.3333333333333 163.72419015782998 L 496.15384615384613 161.37029421145007 L 508.97435897435895 159.13058321052927 L 521.7948717948718 156.9485240527847 L 534.6153846153845 154.8239727878422 L 547.4358974358975 152.79358345631636 L 560.2564102564102 150.83204550843607 L 573.0769230769231 148.94903843721636 L 585.8974358974358 147.18063892770317 L 598.7179487179487 145.3700309016989 L 611.5384615384614 143.62904674315826 L 624.3589743589744 141.95272420165054 L 637.1794871794871 140.38381562589393 L 650 138.81848566084284" /><text  class="poloto_text" alignment-baseline="start" text-anchor="middle" font-size="x-large" x="400" y="37.5" >PSNR</text><text  class="poloto_text" alignment-baseline="start" text-anchor="middle" font-size="x-large" x="400" y="481.25" >frame</text><text  class="poloto_text" alignment-baseline="start" text-anchor="middle" font-size="x-large" transform="rotate(-90,37.5,250)" x="37.5" y="250" >ratio (dB)</text><line  class="poloto_axis_lines" stroke="black" x1="150" x2="150" y1="400" y2="405" /><text  class="poloto_text" alignment-baseline="start" text-anchor="middle" x="150" y="430" > 0</text><line  class="poloto_axis_lines" stroke="black" x1="278.2051282051282" x2="278.2051282051282" y1="400" y2="405" /><text  class="poloto_text" alignment-baseline="start" text-anchor="middle" x="278.2051282051282" y="430" > 500</text><line  class="poloto_axis_lines" stroke="black" x1="406.4102564102564" x2="406.4102564102564" y1="400" y2="405" /><text  class="poloto_text" alignment-baseline="start" text-anchor="middle" x="406.4102564102564" y="430" > 1000</text><line  class="poloto_axis_lines" stroke="black" x1="534.6153846153845" x2="534.6153846153845" y1="400" y2="405" /><text  class="poloto_text" alignment-baseline="start" text-anchor="middle" x="534.6153846153845" y="430" > 1500</text><line  class="poloto_axis_lines" stroke="black" x1="150" x2="144" y1="331.8236740143414" y2="331.8236740143414" /><text  class="poloto_text" alignment-baseline="middle" text-anchor="end" x="135" y="331.8236740143414" > 20</text><line  class="poloto_axis_lines" stroke="black" x1="150" x2="144" y1="248.3254261366011" y2="248.3254261366011" /><text  class="poloto_text" alignment-baseline="middle" text-anchor="end" x="135" y="248.3254261366011" > 25</text><line  class="poloto_axis_lines" stroke="black" x1="150" x2="144" y1="164.82717825886073" y2="164.82717825886073" /><text  class="poloto_text" alignment-baseline="middle" text-anchor="end" x="135" y="164.82717825886073" > 30</text><path  stroke="black" fill="none" class="poloto_axis_lines" style="stroke-dasharray:12.820512820512821;stroke-dashoffset:-0;" d=" M 150 400 L 650 400" /><path  stroke="black" fill="none" class="poloto_axis_lines" style="stroke-dasharray:8.349824787774033;stroke-dashoffset:-68.1763259856586;" d=" M 150 400 L 150 100" /></svg>
